<?xml version="1.0" standalone="no"?>
<!DOCTYPE svg PUBLIC "-//W3C//DTD SVG 20010904//EN" "http://www.w3.org/TR/2001/REC-SVG-20010904/DTD/svg10.dtd">
<!-- Created using Krita: https://krita.org -->
<svg xmlns="http://www.w3.org/2000/svg" 
    xmlns:xlink="http://www.w3.org/1999/xlink"
    xmlns:krita="http://krita.org/namespaces/svg/krita"
    xmlns:sodipodi="http://sodipodi.sourceforge.net/DTD/sodipodi-0.dtd"
    width="300pt"
    height="300pt"
    viewBox="0 0 300 300">
<defs>
  <radialGradient id="gradient0" gradientUnits="objectBoundingBox" cx="0.502571301262619" cy="0.801398700456726" fx="0.496299684443391" fy="0.535222146558789" r="0.723339060496691" spreadMethod="pad">
   <stop stop-color="#f0eab2" offset="0.414285714285714" stop-opacity="1"/>
   <stop stop-color="#ffd26f" offset="0.985714285714286" stop-opacity="1"/>
  </radialGradient>
 </defs>
<path id="shape0" fill="url(#gradient0)" fill-rule="evenodd" stroke="#fedabb" stroke-width="0.681" stroke-linecap="square" stroke-linejoin="bevel" d="M149.452 24.3003L149.987 24.3135L150.07 24.3162L150.285 24.3092L150.812 24.2959L150.811 24.3425L151.044 24.3518L151.567 24.3768L152.086 24.4058L152.602 24.4387L153.113 24.4755L153.621 24.5162L154.125 24.5609L154.624 24.6095L155.12 24.6621L155.612 24.7186L156.101 24.779L156.585 24.8433L157.066 24.9115L157.542 24.9837L158.015 25.0599L158.484 25.1399L158.949 25.2239L159.41 25.3118L159.867 25.4036L160.321 25.4994L160.77 25.5991L161.216 25.7028L161.658 25.8103L162.096 25.9218L162.53 26.0372L162.96 26.1566L163.387 26.2799L163.809 26.4071L164.228 26.5382L164.643 26.6733L165.053 26.8123L165.461 26.9552L165.864 27.1021L166.263 27.2529L166.658 27.4076L167.05 27.5663L167.438 27.7289L167.821 27.8954L168.201 28.0658L168.578 28.2402L168.95 28.4185L169.318 28.6007L169.683 28.7869L170.043 28.977L170.4 29.171L170.753 29.369L171.102 29.5709L171.447 29.7767L171.788 29.9864L172.126 30.2001L172.459 30.4177L172.789 30.6393L173.115 30.8647L173.437 31.0941L173.755 31.3275L174.069 31.5647L174.379 31.8059L174.686 32.051L174.988 32.3001L175.287 32.553L175.582 32.8099L176.018 33.2L176.449 33.5934L176.873 33.9903L177.291 34.3908L177.703 34.7949L178.108 35.2027L178.506 35.6142L178.899 36.0295L179.284 36.4487L179.663 36.8718L180.034 37.2989L180.399 37.7301L180.757 38.1654L181.107 38.6048L181.45 39.0485L181.786 39.4964L182.114 39.9488L182.435 40.4055L182.748 40.8667L183.054 41.3325L183.351 41.8029L183.641 42.2779L183.923 42.7577L184.196 43.2423L184.462 43.7317L184.719 44.226L184.967 44.7253L185.207 45.2297L185.439 45.7391L185.662 46.2537L185.876 46.7735L186.082 47.2987L186.278 47.8291L186.465 48.365L186.643 48.9063L186.812 49.4532L186.972 50.0057L187.122 50.5638L187.263 51.1276L187.394 51.6973L187.515 52.2727L187.627 52.8541L187.729 53.4414L187.82 54.0348L187.902 54.6342L187.973 55.2398L188.035 55.8516L188.086 56.4697L188.126 57.0941L188.156 57.725L188.175 58.3622L188.184 59.006L188.181 59.6564L188.168 60.3134L188.144 60.9772L188.109 61.6477L188.062 62.325L188.004 63.0092L187.935 63.7004L187.854 64.3986L187.762 65.1038L187.658 65.8163L187.543 66.5359L187.409 67.2909L187.266 68.0293L187.114 68.7515L186.953 69.458L186.783 70.1491L186.605 70.8252L186.419 71.4868L186.226 72.1342L186.025 72.7678L185.818 73.3881L185.605 73.9955L185.385 74.5903L185.161 75.1731L184.93 75.7441L184.695 76.3038L184.456 76.8526L184.213 77.3909L183.965 77.9191L183.715 78.4376L183.461 78.9469L183.205 79.4473L182.947 79.9392L182.687 80.4231L182.425 80.8993L182.163 81.3683L181.899 81.8305L181.635 82.2862L181.372 82.7359L181.108 83.18L180.846 83.6188L180.584 84.0529L180.325 84.4826L180.067 84.9083L179.811 85.3304L179.558 85.7493L179.308 86.1655L179.061 86.5793L178.818 86.9911L178.58 87.4014L178.345 87.8105L178.116 88.219L177.892 88.627L177.673 89.0352L177.461 89.4439L177.255 89.8534L177.056 90.2642L176.864 90.6768L176.679 91.0914L176.502 91.5086L176.334 91.9287L176.174 92.3521L176.023 92.7793L175.881 93.2106L175.75 93.6464L175.628 94.0872L175.517 94.5334L175.417 94.9854L175.328 95.4435L175.25 95.9082L175.185 96.3799L175.132 96.859L175.091 97.3459L175.064 97.841L175.029 98.5431L174.981 99.2196L174.923 99.8711L174.853 100.498L174.773 101.101L174.683 101.68L174.583 102.236L174.474 102.769L174.357 103.28L174.232 103.77L174.099 104.238L173.958 104.685L173.812 105.111L173.659 105.518L173.5 105.906L173.336 106.274L173.168 106.624L172.995 106.956L172.818 107.27L172.638 107.567L172.455 107.848L172.27 108.112L172.083 108.361L171.894 108.594L171.704 108.813L171.514 109.017L171.324 109.208L171.135 109.385L170.946 109.549L170.759 109.701L170.573 109.841L170.391 109.969L170.21 110.087L170.034 110.193L169.861 110.29L169.692 110.377L169.528 110.455L169.369 110.524L169.216 110.585L169.07 110.638L168.929 110.684L168.796 110.723L168.671 110.756L168.553 110.783L168.301 110.828L168.019 110.864L167.713 110.887L167.384 110.896L167.038 110.889L166.678 110.864L166.306 110.819L165.928 110.752L165.547 110.661L165.165 110.545L164.788 110.401L164.418 110.227L164.059 110.021L163.714 109.782L163.389 109.507L163.085 109.195L162.806 108.844L162.557 108.451L162.341 108.015L162.161 107.534L162.022 107.006L161.935 106.611L161.864 106.314L161.807 106.108L161.758 105.986L161.717 105.942L161.678 105.969L161.64 106.061L161.599 106.21L161.552 106.409L161.496 106.654L161.427 106.935L161.343 107.247L161.24 107.584L161.116 107.937L160.966 108.302L160.788 108.67L160.579 109.036L160.336 109.392L160.055 109.732L159.734 110.049L159.369 110.337L158.957 110.588L158.494 110.797L157.979 110.955L157.407 111.058L156.775 111.097L156.058 111.092L155.4 111.064L154.799 111.016L154.252 110.947L153.754 110.859L153.304 110.753L152.898 110.631L152.532 110.494L152.203 110.342L151.909 110.177L151.645 110L151.409 109.813L151.197 109.616L151.007 109.41L150.835 109.198L150.677 108.979L150.531 108.755L150.392 108.528L150.26 108.297L150.134 108.075L150.016 108.287L149.884 108.517L149.748 108.744L149.604 108.968L149.449 109.187L149.279 109.399L149.091 109.605L148.882 109.802L148.65 109.989L148.39 110.166L148.1 110.331L147.776 110.483L147.415 110.62L147.014 110.742L146.571 110.848L146.08 110.936L145.541 111.005L144.948 111.053L144.3 111.081L143.593 111.086L142.971 111.047L142.407 110.944L141.899 110.786L141.443 110.577L141.037 110.326L140.677 110.038L140.36 109.721L140.083 109.381L139.843 109.025L139.638 108.659L139.462 108.291L139.315 107.927L139.192 107.573L139.091 107.237L139.008 106.924L138.94 106.643L138.885 106.399L138.838 106.199L138.798 106.05L138.76 105.959L138.722 105.932L138.681 105.976L138.634 106.097L138.577 106.303L138.507 106.601L138.422 106.995L138.284 107.524L138.107 108.005L137.894 108.44L137.649 108.833L137.374 109.184L137.075 109.496L136.753 109.771L136.414 110.01L136.06 110.216L135.695 110.39L135.323 110.534L134.947 110.65L134.571 110.741L134.198 110.808L133.833 110.853L133.477 110.878L133.136 110.885L132.813 110.876L132.51 110.853L132.233 110.817L131.984 110.772L131.868 110.745L131.744 110.712L131.613 110.673L131.475 110.627L131.33 110.574L131.179 110.513L131.023 110.444L130.861 110.366L130.695 110.279L130.525 110.182L130.35 110.076L130.173 109.958L129.993 109.83L129.81 109.69L129.625 109.538L129.439 109.374L129.253 109.197L129.065 109.007L128.878 108.802L128.691 108.584L128.505 108.35L128.321 108.101L128.138 107.837L127.958 107.557L127.78 107.259L127.606 106.945L127.436 106.613L127.269 106.263L127.108 105.895L126.951 105.508L126.801 105.101L126.656 104.674L126.518 104.227L126.387 103.759L126.263 103.27L126.148 102.759L126.041 102.226L125.942 101.67L125.853 101.091L125.774 100.488L125.706 99.8609L125.648 99.2095L125.601 98.533L125.566 97.831L125.539 97.3359L125.5 96.849L125.447 96.37L125.383 95.8983L125.307 95.4336L125.219 94.9756L125.12 94.5236L125.01 94.0775L124.891 93.6367L124.761 93.2009L124.621 92.7696L124.472 92.3425L124.315 91.9191L124.149 91.499L123.975 91.0819L123.793 90.6673L123.603 90.2548L123.407 89.844L123.204 89.4345L122.994 89.0259L122.779 88.6177L122.558 88.2097L122.332 87.8013L122.101 87.3922L121.866 86.9819L121.626 86.5701L121.383 86.1563L121.137 85.7402L120.888 85.3213L120.635 84.8992L120.381 84.4736L120.125 84.0439L119.867 83.6099L119.609 83.171L119.349 82.727L119.089 82.2773L118.829 81.8217L118.569 81.3595L118.311 80.8906L118.053 80.4144L117.796 79.9306L117.542 79.4387L117.289 78.9383L117.039 78.4291L116.792 77.9106L116.549 77.3824L116.309 76.8442L116.073 76.2954L115.841 75.7357L115.614 75.1648L115.393 74.5821L115.177 73.9873L114.966 73.38L114.762 72.7597L114.565 72.1261L114.374 71.4787L114.191 70.8172L114.015 70.1412L113.848 69.4501L113.689 68.7437L113.539 68.0215L113.398 67.2832L113.267 66.5282L113.153 65.8087L113.05 65.0963L112.959 64.3911L112.88 63.693L112.812 63.0018L112.755 62.3177L112.709 61.6404L112.674 60.9699L112.65 60.3063L112.637 59.6493L112.635 58.999L112.643 58.3552L112.662 57.718L112.691 57.0872L112.731 56.4629L112.781 55.8448L112.842 55.2331L112.912 54.6275L112.993 54.0281L113.083 53.4348L113.183 52.8475L113.293 52.2662L113.413 51.6908L113.542 51.1212L113.681 50.5574L113.829 49.9993L113.986 49.4469L114.153 48.9001L114.329 48.3588L114.513 47.8229L114.707 47.2925L114.909 46.7674L115.12 46.2476L115.34 45.7331L115.568 45.2237L115.805 44.7194L116.05 44.2201L116.303 43.7258L116.565 43.2364L116.835 42.7519L117.112 42.2722L117.398 41.7971L117.691 41.3268L117.992 40.8611L118.301 40.3999L118.617 39.9432L118.941 39.4909L119.272 39.043L119.61 38.5993L119.955 38.1599L120.308 37.7247L120.667 37.2936L121.034 36.8665L121.407 36.4434L121.787 36.0243L122.173 35.609L122.566 35.1975L122.966 34.7897L123.371 34.3857L123.783 33.9852L124.201 33.5883L124.626 33.1949L125.056 32.8049L125.346 32.548L125.641 32.2951L125.939 32.046L126.241 31.8009L126.547 31.5598L126.857 31.3225L127.17 31.0892L127.488 30.8598L127.809 30.6344L128.134 30.4129L128.463 30.1953L128.795 29.9816L129.132 29.7719L129.472 29.5661L129.816 29.3642L130.164 29.1663L130.515 28.9723L130.871 28.7822L131.23 28.596L131.593 28.4138L131.96 28.2355L132.331 28.0612L132.705 27.8907L133.083 27.7242L133.466 27.5617L133.852 27.403L134.241 27.2483L134.635 27.0975L135.032 26.9507L135.433 26.8077L135.838 26.6687L136.247 26.5337L136.66 26.4026L137.076 26.2753L137.497 26.1521L137.921 26.0327L138.349 25.9173L138.78 25.8058L139.216 25.6983L139.655 25.5947L140.098 25.495L140.545 25.3992L140.996 25.3074L141.451 25.2194L141.909 25.1355L142.371 25.0554L142.837 24.9793L143.307 24.9071L143.781 24.8389L144.258 24.7745L144.739 24.7141L145.224 24.6577L145.713 24.6051L146.206 24.5565L146.702 24.5119L147.203 24.4711L147.707 24.4343L148.215 24.4014L148.727 24.3724L149.242 24.3474L149.453 24.3389L149.452 24.3003" sodipodi:nodetypes="ccccccccccccccccccccccccccccccccccccccccccccccccccccccccccccccccccccccccccccccccccccccccccccccccccccccccccccccccccccccccccccccccccccccccccccccccccccccccccccccccccccccccccccccccccccccccccccccccccccccccccccccccccccccccccccccccccccccccccccccccccccccccccccccccccccccccccccccccccccccccccccccccccccccccccccccccccccccccccccccccccccccccccccccccccccccccccccccccccccccccccccccccccccccccccccccccccccccccccccccccccccccccccccccccccccccccccccccccccccccccccccccccccccccccccccccccccccccccccccccccccccccccccccccccccccccccccccccccccccccccccccccccccccccccccccccccccccccccccccccccccccccccccccccccccccccccccccccccccccccccccc"/>
</svg>
