<?xml version="1.0" encoding="UTF-8" standalone="no"?>
<!-- Created using Krita: https://krita.org -->

<svg
   width="42.075691pt"
   height="77.916252pt"
   viewBox="0 0 42.075691 77.916252"
   version="1.1"
   id="svg24"
   xmlns="http://www.w3.org/2000/svg"
   xmlns:svg="http://www.w3.org/2000/svg">
  <defs
     id="defs24">
    <linearGradient
       id="gradient0"
       gradientUnits="userSpaceOnUse"
       x1="0"
       y1="5.6435752e-08"
       x2="12.642739"
       y2="12.642739"
       spreadMethod="pad"
       gradientTransform="matrix(1.5056415,0,0,0.66416875,9.7074309,69.000818)">
      <stop
         stop-color="#6c5752"
         offset="0"
         stop-opacity="1"
         id="stop1" />
      <stop
         stop-color="#5a4132"
         offset="1"
         stop-opacity="1"
         id="stop2" />
    </linearGradient>
    <linearGradient
       id="gradient1"
       gradientUnits="userSpaceOnUse"
       x1="0"
       y1="0"
       x2="15.074574"
       y2="15.074574"
       spreadMethod="pad"
       gradientTransform="matrix(1.0059391,0,0,0.99409601,9.4247699,54.992133)">
      <stop
         stop-color="#6c5752"
         offset="0"
         stop-opacity="1"
         id="stop3" />
      <stop
         stop-color="#5a4132"
         offset="1"
         stop-opacity="1"
         id="stop4" />
    </linearGradient>
    <linearGradient
       id="gradient2"
       gradientUnits="userSpaceOnUse"
       x1="0"
       y1="5.6435752e-08"
       x2="12.642739"
       y2="12.642739"
       spreadMethod="pad"
       gradientTransform="matrix(-1.5056415,0,0,0.66416875,42.330836,69.000818)">
      <stop
         stop-color="#6c5752"
         offset="0"
         stop-opacity="1"
         id="stop5" />
      <stop
         stop-color="#5a4132"
         offset="1"
         stop-opacity="1"
         id="stop6" />
    </linearGradient>
    <linearGradient
       id="gradient3"
       gradientUnits="userSpaceOnUse"
       x1="0"
       y1="0"
       x2="15.172063"
       y2="15.172063"
       spreadMethod="pad"
       gradientTransform="matrix(-1.0115277,0,0,0.98860365,42.599434,55.020258)">
      <stop
         stop-color="#6c5752"
         offset="0"
         stop-opacity="1"
         id="stop7" />
      <stop
         stop-color="#5a4132"
         offset="1"
         stop-opacity="1"
         id="stop8" />
    </linearGradient>
    <linearGradient
       id="gradient4"
       gradientUnits="userSpaceOnUse"
       x1="6.7035041"
       y1="4.7430978"
       x2="12.780357"
       y2="14.273154"
       spreadMethod="pad"
       gradientTransform="matrix(1.3313953,0,0,0.75109172,8.8509079,72.195805)">
      <stop
         stop-color="#9e8583"
         offset="0"
         stop-opacity="1"
         id="stop9" />
      <stop
         stop-color="#6c5752"
         offset="1"
         stop-opacity="1"
         id="stop10" />
    </linearGradient>
    <linearGradient
       id="gradient5"
       gradientUnits="userSpaceOnUse"
       x1="6.6520247"
       y1="4.6869798"
       x2="12.712645"
       y2="14.252292"
       spreadMethod="pad"
       gradientTransform="matrix(-1.315643,0,0,0.76008462,43.187359,72.195805)">
      <stop
         stop-color="#9e8583"
         offset="0"
         stop-opacity="1"
         id="stop11" />
      <stop
         stop-color="#6c5752"
         offset="1"
         stop-opacity="1"
         id="stop12" />
    </linearGradient>
    <linearGradient
       id="gradient6"
       gradientUnits="userSpaceOnUse"
       x1="11.751951"
       y1="6.9735379"
       x2="19.789457"
       y2="27.797018"
       spreadMethod="pad"
       gradientTransform="matrix(-1.0932203,0,0,0.91472876,38.628983,51.409743)">
      <stop
         stop-color="#9e8583"
         offset="0"
         stop-opacity="1"
         id="stop13" />
      <stop
         stop-color="#6c5752"
         offset="1"
         stop-opacity="1"
         id="stop14" />
    </linearGradient>
    <linearGradient
       id="gradient7"
       gradientUnits="userSpaceOnUse"
       x1="11.766255"
       y1="6.9663372"
       x2="19.962494"
       y2="27.830357"
       spreadMethod="pad"
       gradientTransform="matrix(1.0976164,0,0,0.91106509,13.049782,51.387223)">
      <stop
         stop-color="#9e8583"
         offset="0"
         stop-opacity="1"
         id="stop15" />
      <stop
         stop-color="#6c5752"
         offset="1"
         stop-opacity="1"
         id="stop16" />
    </linearGradient>
    <linearGradient
       id="gradient8"
       gradientUnits="userSpaceOnUse"
       x1="8.6538658"
       y1="8.6096783"
       x2="8.5890036"
       y2="17.359884"
       spreadMethod="pad"
       gradientTransform="matrix(-0.75399572,0,0,1.3262675,38.121012,21.018412)">
      <stop
         stop-color="#9e8583"
         offset="0"
         stop-opacity="1"
         id="stop17" />
      <stop
         stop-color="#6c5752"
         offset="1"
         stop-opacity="1"
         id="stop18" />
    </linearGradient>
    <linearGradient
       id="gradient9"
       gradientUnits="userSpaceOnUse"
       x1="8.6538658"
       y1="8.7793274"
       x2="8.7382088"
       y2="17.359884"
       spreadMethod="pad"
       gradientTransform="matrix(0.75399572,0,0,1.3262675,13.917256,21.018412)">
      <stop
         stop-color="#9e8583"
         offset="0"
         stop-opacity="1"
         id="stop19" />
      <stop
         stop-color="#6c5752"
         offset="1"
         stop-opacity="1"
         id="stop20" />
    </linearGradient>
    <linearGradient
       id="gradient10"
       gradientUnits="userSpaceOnUse"
       x1="5.7526546"
       y1="10.961727"
       x2="6.1917934"
       y2="19.178846"
       spreadMethod="pad"
       gradientTransform="matrix(0.86047014,0,0,1.1621554,11.165948,5)">
      <stop
         stop-color="#9e8583"
         offset="0"
         stop-opacity="1"
         id="stop21" />
      <stop
         stop-color="#6c5752"
         offset="1"
         stop-opacity="1"
         id="stop22" />
    </linearGradient>
    <linearGradient
       id="gradient11"
       gradientUnits="userSpaceOnUse"
       x1="5.4205742"
       y1="10.931771"
       x2="5.5987725"
       y2="19.110521"
       spreadMethod="pad"
       gradientTransform="matrix(-0.85784061,0,0,1.1657177,40.872319,5)">
      <stop
         stop-color="#9e8583"
         offset="0"
         stop-opacity="1"
         id="stop23" />
      <stop
         stop-color="#6c5752"
         offset="1"
         stop-opacity="1"
         id="stop24" />
    </linearGradient>
  </defs>
  <g
     id="g24"
     transform="translate(-5,-5)">
    <path
       id="shape0"
       fill="url(#gradient0)"
       fill-rule="evenodd"
       stroke-opacity="0"
       stroke="#000000"
       stroke-width="0"
       stroke-linecap="square"
       stroke-linejoin="bevel"
       d="m 27.990331,77.396908 c -5.3245,0.02364 -9.21956,-0.46255 -11.68517,-1.45858 -2.4656,-0.99603 -4.66485,-2.25713 -6.5977301,-3.7833 2.9348201,-1.58591 6.3872001,-2.538249 10.3571001,-2.857016 3.97,-0.318766 6.3657,-0.381104 7.1871,-0.187013 1.7004,-0.109247 1.9466,2.652719 0.7387,8.285909 z"
       style="fill:url(#gradient0)" />
    <path
       id="shape1"
       fill="url(#gradient1)"
       fill-rule="evenodd"
       stroke-opacity="0"
       stroke="#000000"
       stroke-width="0"
       stroke-linecap="square"
       stroke-linejoin="bevel"
       d="m 22.080971,69.900533 c -3.36086,-4.263 -5.48104,-6.92862 -6.3605,-7.99677 -0.87946,-1.06814 -2.97803,-2.80594 -6.2957011,-5.21339 l 1.1037901,-1.69824 c 3.491861,2.55296 6.332851,5.23508 8.522981,8.04635 3.28523,4.21695 5.57633,6.65135 5.53683,6.66615 -0.0396,0.0149 -0.327,0.4443 -2.5074,0.1959 z"
       style="fill:url(#gradient1)" />
    <path
       id="shape2"
       fill="url(#gradient2)"
       fill-rule="evenodd"
       stroke-opacity="0"
       stroke="#000000"
       stroke-width="0"
       stroke-linecap="square"
       stroke-linejoin="bevel"
       d="m 24.047936,77.396908 c 5.3245,0.02364 9.21956,-0.46255 11.68517,-1.45858 2.4656,-0.99603 4.66485,-2.25713 6.59773,-3.7833 -2.93482,-1.58591 -6.3872,-2.538249 -10.3571,-2.857016 -3.97,-0.318766 -6.3657,-0.381104 -7.1871,-0.187013 -1.7004,-0.109247 -1.9466,2.652719 -0.7387,8.285909 z"
       style="fill:url(#gradient2)" />
    <path
       id="shape3"
       fill="url(#gradient3)"
       fill-rule="evenodd"
       stroke-opacity="0"
       stroke="#000000"
       stroke-width="0"
       stroke-linecap="square"
       stroke-linejoin="bevel"
       d="m 29.957234,69.956858 c 3.4453,-4.2256 5.60766,-6.87245 6.48712,-7.94059 0.87947,-1.06814 2.93116,-2.88563 6.15508,-5.45246 l -1.04754,-1.54355 c -3.10945,2.41503 -5.93638,5.08777 -8.48079,8.01822 -3.81667,4.39568 -5.85757,6.56698 -5.81807,6.58178 0.0396,0.0149 0.5238,0.5849 2.7042,0.3366 z"
       style="fill:url(#gradient3)" />
    <path
       id="shape4"
       fill="#c59e5b"
       fill-opacity="0.721569"
       fill-rule="evenodd"
       stroke-opacity="0"
       stroke="#000000"
       stroke-width="0"
       stroke-linecap="square"
       stroke-linejoin="bevel"
       d="m 36.044172,38.266792 -0.0083,0.212044 -0.0031,0.218161 10e-4,0.22122 0.0062,0.226316 0.01139,0.231414 0.01553,0.235492 0.02175,0.240588 0.02486,0.244667 0.03107,0.248744 0.03625,0.253842 0.04039,0.257919 0.04557,0.263017 0.04971,0.267094 0.05489,0.272192 0.0611,0.276269 0.06421,0.281367 0.07042,0.285444 0.07457,0.290542 0.07974,0.294619 0.08492,0.299717 0.08907,0.303794 0.09424,0.307872 0.09942,0.31297 0.1046,0.318066 0.108741,0.322144 0.11392,0.326223 0.119098,0.331319 0.124276,0.335397 0.128419,0.340494 0.133596,0.344572 0.138775,0.34967 0.142918,0.353747 0.149131,0.358844 0.153274,0.362922 0.157416,0.36802 0.163631,0.372097 0.167772,0.376175 0.172951,0.381272 0.177094,0.386369 0.183307,0.389428 0.18745,0.395544 0.20402,0.425108 0.20402,0.418992 0.20402,0.411855 0.202984,0.405739 0.201949,0.399622 0.201948,0.392486 0.200913,0.386369 0.200913,0.379234 0.199878,0.373116 0.198841,0.365981 0.198842,0.359863 0.197806,0.353748 0.197806,0.346611 0.196771,0.340494 0.19677,0.334378 0.195735,0.327241 0.1947,0.320106 0.194699,0.313988 0.194699,0.307873 0.192628,0.301755 0.192628,0.294619 0.192628,0.287484 0.191592,0.281366 0.191593,0.27525 0.189521,0.268114 0.190556,0.261997 0.188486,0.255881 0.189521,0.248744 0.18745,0.242628 0.187449,0.235491 0.18745,0.229375 0.185379,0.222239 0.186414,0.217142 0.184343,0.208986 0.185378,0.202869 0.183307,0.196753 0.183308,0.190636 0.183307,0.1835 -0.0145,0.371077 -0.02175,0.364961 -0.029,0.359864 -0.03625,0.353747 -0.04453,0.347631 -0.05178,0.342533 -0.06007,0.336416 -0.06732,0.3303 -0.07457,0.325203 -0.08285,0.319086 -0.0901,0.312969 -0.09735,0.306853 -0.105635,0.301756 -0.112884,0.296658 -0.120134,0.289522 -0.128418,0.284425 -0.135668,0.278308 -0.143954,0.273211 -0.150167,0.266075 -0.159487,0.261997 -0.165702,0.254861 -0.173986,0.249764 -0.181236,0.243647 -0.189521,0.237531 -0.206091,0.247725 -0.216448,0.251802 -0.226804,0.255881 -0.236125,0.259958 -0.24648,0.264036 -0.255802,0.269133 -0.267194,0.273211 -0.275478,0.27627 -0.286871,0.281366 -0.296191,0.285445 -0.306548,0.290541 -0.316904,0.2936 -0.326225,0.298697 -0.336581,0.301756 -0.346938,0.306852 -0.356258,0.310931 -0.366614,0.315008 -0.376971,0.320106 -0.386292,0.323163 -0.396648,0.328261 -0.407004,0.33132 -0.41736,0.336416 -0.426682,0.340495 -9.351776,1.480233 0.0021,0.623899 -1.970812,-0.31195 -1.970812,0.31195 0.0021,-0.623899 L 14.717357,76.3624 14.290676,76.021905 13.873315,75.685489 13.466311,75.354169 13.069663,75.025908 12.683371,74.702745 12.3064,74.382639 11.939785,74.067631 11.583527,73.7567 11.23659,73.449848 10.900009,73.148092 10.573784,72.849395 10.25688,72.555795 9.9503319,72.265254 9.6541409,71.979809 9.3672699,71.698443 9.0917909,71.422173 8.8245979,71.148962 8.5687961,70.879829 8.3223152,70.615793 8.0861906,70.355835 7.8593867,70.099954 7.6429392,69.848152 7.436848,69.600427 7.2473269,69.362896 7.0660909,69.119249 6.8921044,68.869485 6.7264029,68.614624 6.5669152,68.352627 6.4167483,68.086552 6.2727951,67.813341 6.137127,67.535033 6.0087084,67.250608 5.8885748,66.961086 5.7756907,66.664428 5.670056,66.362672 5.572706,66.055819 5.482606,65.74285 5.399755,65.423764 5.325189,65.098561 5.257873,64.768261 5.197806,64.431845 5.146024,64.089312 5.101492,63.741681 5.065245,63.387934 5.036247,63.02807 5.014499,62.663109 5,62.292032 l 0.1833073,-0.1835 0.1833072,-0.190636 0.1833073,-0.196753 0.1853785,-0.202869 0.1843429,-0.208986 0.1864141,-0.217142 0.1853785,-0.222239 0.1874498,-0.229375 0.1874498,-0.235491 0.1874498,-0.242628 0.1895211,-0.248744 0.1884854,-0.255881 0.1905567,-0.261997 0.189521,-0.268114 0.1915924,-0.27525 0.1915923,-0.281366 0.1926279,-0.287484 0.192628,-0.294619 0.192628,-0.301755 0.1946994,-0.307873 0.194699,-0.313988 0.194699,-0.320106 0.195735,-0.327241 0.196771,-0.334378 0.19677,-0.340494 0.197806,-0.346611 0.1978056,-0.353748 0.198842,-0.359863 0.198842,-0.365981 0.199877,-0.373116 0.200913,-0.379234 0.200913,-0.386369 0.201949,-0.392486 0.201949,-0.399622 0.202984,-0.405739 0.20402,-0.411855 0.20402,-0.418992 0.20402,-0.425108 0.18745,-0.395544 0.183307,-0.389428 0.177094,-0.386369 0.172951,-0.381272 0.167773,-0.376175 0.16363,-0.372097 0.157416,-0.36802 0.153274,-0.362922 0.149131,-0.358844 0.142918,-0.353747 0.138775,-0.34967 0.133597,-0.344572 0.128418,-0.340494 0.124276,-0.335397 0.119098,-0.331319 0.11392,-0.326223 0.108742,-0.322144 0.104599,-0.318066 0.09942,-0.31297 0.09424,-0.307872 0.08906,-0.303794 0.08492,-0.299717 0.07974,-0.294619 0.07456,-0.290542 0.07042,-0.285444 0.06421,-0.281367 0.0611,-0.276269 0.05489,-0.272192 0.04971,-0.267094 0.04557,-0.263017 0.04039,-0.257919 0.03625,-0.253842 0.03107,-0.248744 0.02485,-0.244667 0.02175,-0.240588 0.01553,-0.235492 0.01139,-0.231414 0.0062,-0.226316 0.001,-0.22122 -0.0031,-0.218161 -0.0083,-0.212044 0.612059,0.0031 0.596526,0.0041 0.579955,0.0041 0.563385,0.0041 0.54785,0.0041 0.531281,0.0041 0.51471,0.0041 0.499176,0.0051 0.482605,0.0041 0.467071,0.0051 0.449465,0.0041 0.433931,0.0051 0.418396,0.0051 0.400791,0.0051 0.386291,0.0051 0.368686,0.0051 0.353151,0.0051 0.336581,0.0061 0.320011,0.0051 0.304477,0.0061 0.287906,0.0051 0.271336,0.0061 0.255802,0.0061 h 0.02485 0.02486 l 0.255802,-0.0061 0.271336,-0.0061 0.287906,-0.0051 0.304477,-0.0061 0.320011,-0.0051 0.336581,-0.0061 0.353151,-0.0051 0.368686,-0.0051 0.386292,-0.0051 0.40079,-0.0051 0.418396,-0.0051 0.433931,-0.0051 0.449465,-0.0041 0.467071,-0.0051 0.482606,-0.0041 0.499175,-0.0051 0.514711,-0.0041 0.53128,-0.0041 0.54785,-0.0041 0.563385,-0.0041 0.579956,-0.0041 0.596525,-0.0041 0.61206,-0.0031" />
    <path
       id="shape5"
       fill="url(#gradient4)"
       fill-rule="evenodd"
       stroke-opacity="0"
       stroke="#000000"
       stroke-width="0"
       stroke-linecap="square"
       stroke-linejoin="bevel"
       d="m 27.220108,77.016375 c -3.1373,-0.07048 -5.7227,-0.65785 -8.99303,-1.1156 -2.83437,-1.18295 -5.85523,-1.27631 -8.5086871,-3.70497 0.6388071,0.779029 0.4409971,1.9655 0.3622071,2.86723 -0.6683151,0.11286 -0.7457381,0.14982 -1.2296901,0.9006 0.332001,0.87029 0.244874,1.44596 0.481309,2.31624 1.2063711,0.91626 3.4612311,2.10779 5.4189111,2.84909 1.46802,0.54804 4.72208,1.62014 8.36398,1.71884 1.4065,0.1085 3.0662,0.0732 4.292,-0.0035 0.6529,-2.20424 0.5906,-4.14688 -0.187,-5.82793 z"
       style="fill:url(#gradient4)" />
    <path
       id="shape6"
       fill="url(#gradient5)"
       fill-rule="evenodd"
       stroke-opacity="0"
       stroke="#000000"
       stroke-width="0"
       stroke-linecap="square"
       stroke-linejoin="bevel"
       d="m 24.818159,77.016375 c 3.1373,-0.07048 5.7227,-0.65785 8.99303,-1.1156 2.83437,-1.18295 5.85523,-1.27631 8.508687,-3.70497 -0.638807,0.779029 -0.440997,1.9655 -0.362207,2.86723 0.668315,0.11286 0.745738,0.14982 1.22969,0.9006 -0.332001,0.87029 -0.244874,1.44596 -0.481309,2.31624 -1.206371,0.91626 -3.461231,2.10779 -5.418911,2.84909 -1.46802,0.54804 -4.72208,1.62014 -8.36398,1.71884 -1.4065,0.1085 -3.0662,0.0732 -4.292,-0.0035 1.4358,-2.36133 1.4981,-4.30397 0.187,-5.82793 z"
       style="fill:url(#gradient5)" />
    <path
       id="shape7"
       fill="url(#gradient6)"
       fill-rule="evenodd"
       stroke-opacity="0"
       stroke="#000000"
       stroke-width="0"
       stroke-linecap="square"
       stroke-linejoin="bevel"
       d="m 34.395063,77.602943 c 0.63155,0.149 1.08791,-0.2496 1.71342,-1.0093 0.66269,-1.2245 1.534425,-3.1125 2.231354,-5.149 0.504017,-1.9321 0.25853,-2.951 -0.05237,-4.2215 -3.857778,-4.8411 -7.894348,-8.06992 -12.719788,-10.64924 -6.4639,-2.88191 -8.9315,-3.45388 -15.190001,-5.064805 -1.1871001,-0.237716 -1.7623999,4.5e-4 -2.2208999,0.199924 -0.6875,0.373873 -0.9646,1.313521 -0.8401,2.205401 0.6043,1.25081 1.0237,1.57617 2.1785998,2.63403 l 1.0528001,-1.28376 c -0.417,-0.65537 -1.7272001,-1.21553 -1.5077001,-2.09642 0.4173,-0.29233 0.9318,-0.24706 1.9115001,0.02247 4.723101,1.52225 7.440801,2.88042 14.169601,5.60343 4.20964,2.25875 8.22345,4.77007 11.16745,8.96967 0.37372,1.1355 1.32253,2.6289 0.25577,3.7595 -1.29984,4.4976 -1.74503,3.3512 -2.50493,4.676 -0.12804,0.6398 -0.0096,1.1076 0.35529,1.4036 z"
       style="fill:url(#gradient6)" />
    <path
       id="shape8"
       fill="url(#gradient7)"
       fill-rule="evenodd"
       stroke-opacity="0"
       stroke="#000000"
       stroke-width="0"
       stroke-linecap="square"
       stroke-linejoin="bevel"
       d="m 17.643212,77.565423 c -0.63155,0.149 -1.08792,-0.2496 -1.71343,-1.0093 -0.66269,-1.2244 -1.7313,-3.1125 -2.428226,-5.1489 -0.949573,-1.9322 -0.172449,-2.8761 0.249241,-4.1466 3.734645,-5.1795 8.173745,-8.38863 13.075985,-10.78985 6.6198,-2.73904 8.8263,-3.49971 15.0213,-5.08355 l 1.9209,0.312424 c 0.8399,0.526359 0.9365,1.501016 0.812,2.392896 -0.6044,1.25082 -0.9852,1.32067 -2.1401,2.37854 -0.2676,0.08821 -0.891,-0.96619 -0.9132,-1.27671 0.6468,-0.57877 1.7648,-1.29519 1.5452,-2.1761 -0.4173,-0.29233 -0.8381,-0.0033 -1.8178,0.26622 -4.7904,1.4649 -7.8339,2.45302 -14.3852,5.43468 -4.25144,2.21692 -8.40742,4.57665 -11.12055,9.00715 -0.19656,1.1355 -1.12491,2.6289 -0.25577,3.7595 1.29985,4.4976 1.74504,3.3512 2.50493,4.676 0.12805,0.6398 0.0096,1.1077 -0.35528,1.4036 z"
       style="fill:url(#gradient7)" />
    <path
       id="shape9"
       fill="url(#gradient8)"
       fill-rule="evenodd"
       stroke-opacity="0"
       stroke="#000000"
       stroke-width="0"
       stroke-linecap="square"
       stroke-linejoin="bevel"
       d="m 30.539382,26.464962 c 0.38538,-0.69856 0.33269,-1.21035 0.53589,-1.91857 -0.21112,-0.97067 -0.52983,-1.95119 -1.47367,-2.704786 -0.74294,-0.491644 -1.79119,-0.600412 -2.73599,-0.765773 -0.5588,-0.0018 -1.3758,-0.188755 -1.8019,0.121877 l 0.3369,22.788302 5.36352,-0.2306 c 1.75945,-0.339 4.07117,-0.9536 6.01449,-2.2261 0.669335,-0.9609 0.95282,-2.6548 1.34239,-4.1081 -1.80736,-2.5787 -1.22502,-2.3472 -1.72413,-4.6141 -0.25123,-1.3717 -0.66617,-2.46484 -0.68557,-3.88205 -0.94818,-1.04326 -1.33541,-1.61652 -4.06475,-1.7691 -2.13869,-0.0733 -0.77865,0.1862 -1.74618,0.03902 0.2776,-0.142 0.4906,-0.38534 0.639,-0.73002 z"
       style="fill:url(#gradient8)" />
    <path
       id="shape10"
       fill="url(#gradient9)"
       fill-rule="evenodd"
       stroke-opacity="0"
       stroke="#000000"
       stroke-width="0"
       stroke-linecap="square"
       stroke-linejoin="bevel"
       d="m 22.361386,26.408712 c -0.55413,-0.45481 -0.95144,-1.0791 -1.15464,-1.78732 0.21112,-0.97067 0.52983,-1.76369 1.47367,-2.51729 0.74294,-0.49164 1.54744,-0.862908 2.49224,-1.028269 0.5588,-0.0018 1.3758,-0.188755 1.8019,0.121877 l -0.3369,22.788302 -5.36352,-0.2306 c -1.75945,-0.339 -4.07117,-0.9536 -6.01449,-2.2261 -0.669335,-0.9609 -0.95282,-2.6548 -1.34239,-4.1081 1.80736,-2.5787 1.22502,-2.3472 1.72413,-4.6141 0.25123,-1.3717 0.66617,-2.46484 0.68557,-3.88205 0.94818,-1.04326 0.96041,-1.61652 3.68975,-1.7691 0.76296,0.006 1.11622,-0.03922 2.12118,-0.11098 0.4224,0.0205 0.4969,-0.19159 0.2235,-0.63627 z"
       style="fill:url(#gradient9)" />
    <path
       id="shape11"
       fill="url(#gradient10)"
       fill-rule="evenodd"
       stroke-opacity="0"
       stroke="#000000"
       stroke-width="0"
       stroke-linecap="square"
       stroke-linejoin="bevel"
       d="m 26.882049,8.6561203 c -1.4656,-0.22573 -2.8556,-0.22514 -4.8202,0.32422 -2.03573,2.5069297 -4.8145,6.1972597 -6.45684,9.4343597 1.59447,2.4623 3.99303,4.9304 6.07294,5.6926 -0.5032,0.6686 0.3439,1.511 0.6842,1.9748 l 0.4939,0.8138 c 0.1869,0.3478 -0.9691,0.2705 -1.3232,0.3929 -4.30323,-0.2594 -4.36437,-1.9884 -6.30423,-3.7645 -2.06346,-1.832 -3.134917,-4.5224 -4.062671,-6.8455 4.381421,-5.48668 4.941511,-5.61459 8.476501,-11.060239 5.2886,-0.5448964 4.8974,-0.5884048 7.4021,-0.618561 l 0.6236,2.01481 c 0.0152,1.0463103 -0.2469,1.5934203 -0.7861,1.6413103 z"
       style="fill:url(#gradient10)" />
    <path
       id="shape12"
       fill="url(#gradient11)"
       fill-rule="evenodd"
       stroke-opacity="0"
       stroke="#000000"
       stroke-width="0"
       stroke-linecap="square"
       stroke-linejoin="bevel"
       d="m 25.156219,8.6561203 c 1.4656,-0.22573 2.8556,-0.22514 4.8202,0.32422 2.03573,2.5069297 4.8145,6.1972597 6.45684,9.4343597 -1.59447,2.4623 -3.63678,4.5554 -5.71674,5.3176 0.50329,0.6686 0.1155,1.9329 -0.2248,2.3967 l -0.8407,0.795 c -0.0255,0.2679 -0.0732,0.5445 0.7044,0.4961 2.01573,0.0218 4.51437,-2.1197 6.45423,-3.8958 2.06346,-1.832 3.134916,-4.5224 4.06267,-6.8455 -4.38142,-5.48668 -4.94151,-5.61459 -8.4765,-11.060239 C 27.107219,5.0736646 27.498419,5.0301562 24.993719,5 l -0.6236,2.01481 c -0.0152,1.0463103 0.2469,1.5934203 0.7861,1.6413103 z"
       style="fill:url(#gradient11)" />
  </g>
</svg>
