<?xml version="1.0" standalone="no"?>
<!DOCTYPE svg PUBLIC "-//W3C//DTD SVG 20010904//EN" "http://www.w3.org/TR/2001/REC-SVG-20010904/DTD/svg10.dtd">
<!-- Created using Krita: https://krita.org -->
<svg xmlns="http://www.w3.org/2000/svg" 
    xmlns:xlink="http://www.w3.org/1999/xlink"
    xmlns:krita="http://krita.org/namespaces/svg/krita"
    xmlns:sodipodi="http://sodipodi.sourceforge.net/DTD/sodipodi-0.dtd"
    width="300pt"
    height="300pt"
    viewBox="0 0 300 300">
<defs>
  <linearGradient id="gradient0" gradientUnits="objectBoundingBox" x1="0" y1="0" x2="1" y2="1" spreadMethod="pad">
   <stop stop-color="#6c5752" offset="0" stop-opacity="1"/>
   <stop stop-color="#5a4132" offset="1" stop-opacity="1"/>
  </linearGradient>
  <linearGradient id="gradient1" gradientUnits="objectBoundingBox" x1="0" y1="0" x2="1" y2="1" spreadMethod="pad">
   <stop stop-color="#6c5752" offset="0" stop-opacity="1"/>
   <stop stop-color="#5a4132" offset="1" stop-opacity="1"/>
  </linearGradient>
  <linearGradient id="gradient2" gradientUnits="objectBoundingBox" x1="0" y1="0" x2="1" y2="1" spreadMethod="pad">
   <stop stop-color="#6c5752" offset="0" stop-opacity="1"/>
   <stop stop-color="#5a4132" offset="1" stop-opacity="1"/>
  </linearGradient>
  <linearGradient id="gradient3" gradientUnits="objectBoundingBox" x1="0" y1="0" x2="1" y2="1" spreadMethod="pad">
   <stop stop-color="#6c5752" offset="0" stop-opacity="1"/>
   <stop stop-color="#5a4132" offset="1" stop-opacity="1"/>
  </linearGradient>
  <linearGradient id="gradient4" gradientUnits="objectBoundingBox" x1="0.469658211548539" y1="0.332309015384459" x2="0.895412247008088" y2="1" spreadMethod="pad">
   <stop stop-color="#9e8583" offset="0" stop-opacity="1"/>
   <stop stop-color="#6c5752" offset="1" stop-opacity="1"/>
  </linearGradient>
  <linearGradient id="gradient5" gradientUnits="objectBoundingBox" x1="0.471631565378569" y1="0.332309015384459" x2="0.901332308498217" y2="1.01049396890688" spreadMethod="pad">
   <stop stop-color="#9e8583" offset="0" stop-opacity="1"/>
   <stop stop-color="#6c5752" offset="1" stop-opacity="1"/>
  </linearGradient>
  <linearGradient id="gradient6" gradientUnits="objectBoundingBox" x1="0.409922579129241" y1="0.243245620515218" x2="0.690280717991199" y2="0.969594297435589" spreadMethod="pad">
   <stop stop-color="#9e8583" offset="0" stop-opacity="1"/>
   <stop stop-color="#6c5752" offset="1" stop-opacity="1"/>
  </linearGradient>
  <linearGradient id="gradient7" gradientUnits="objectBoundingBox" x1="0.409011640064543" y1="0.242159702566488" x2="0.69392447425017" y2="0.967422461538134" spreadMethod="pad">
   <stop stop-color="#9e8583" offset="0" stop-opacity="1"/>
   <stop stop-color="#6c5752" offset="1" stop-opacity="1"/>
  </linearGradient>
  <linearGradient id="gradient8" gradientUnits="objectBoundingBox" x1="0.499718791808226" y1="0.497167143252605" x2="0.495973287572919" y2="1.00244909922784" spreadMethod="pad">
   <stop stop-color="#9e8583" offset="0" stop-opacity="1"/>
   <stop stop-color="#6c5752" offset="1" stop-opacity="1"/>
  </linearGradient>
  <linearGradient id="gradient9" gradientUnits="objectBoundingBox" x1="0.499718791808036" y1="0.506963540163967" x2="0.504589128810892" y2="1.00244909922784" spreadMethod="pad">
   <stop stop-color="#9e8583" offset="0" stop-opacity="1"/>
   <stop stop-color="#6c5752" offset="1" stop-opacity="1"/>
  </linearGradient>
  <linearGradient id="gradient10" gradientUnits="objectBoundingBox" x1="0.299947892987898" y1="0.571553013731509" x2="0.322844908254623" y2="1" spreadMethod="pad">
   <stop stop-color="#9e8583" offset="0" stop-opacity="1"/>
   <stop stop-color="#6c5752" offset="1" stop-opacity="1"/>
  </linearGradient>
  <linearGradient id="gradient11" gradientUnits="objectBoundingBox" x1="0.281769232806665" y1="0.568249239085662" x2="0.29103225293761" y2="0.993392450708306" spreadMethod="pad">
   <stop stop-color="#9e8583" offset="0" stop-opacity="1"/>
   <stop stop-color="#6c5752" offset="1" stop-opacity="1"/>
  </linearGradient>
 </defs>
<path id="shape0" transform="translate(133.688297597678, 160.934287629751)" fill="url(#gradient0)" fill-rule="evenodd" stroke="none" stroke-width="1.044543" stroke-linecap="square" stroke-linejoin="bevel" d="M18.2829 8.39609C12.9584 8.41973 9.06334 7.93354 6.59773 6.93751C4.13213 5.94148 1.93288 4.68038 0 3.15421C2.93482 1.5683 6.3872 0.615961 10.3571 0.297194C14.3271 -0.0215727 16.7228 -0.0839104 17.5442 0.110181C19.2446 0.000933213 19.4908 2.7629 18.2829 8.39609Z" sodipodi:nodetypes="czczcc"/><path id="shape1" transform="translate(133.405637095073, 146.925602242763)" fill="url(#gradient1)" fill-rule="evenodd" stroke="none" stroke-width="1.044543" stroke-linecap="square" stroke-linejoin="bevel" d="M12.6562 14.9084C9.29534 10.6454 7.17516 7.97978 6.2957 6.91163C5.41624 5.84349 3.31767 4.10569 0 1.69824L1.10379 0C4.59565 2.55296 7.43664 5.23508 9.62677 8.04635C12.912 12.2633 15.2031 14.6977 15.1636 14.7125C15.124 14.7274 14.8366 15.1568 12.6562 14.9084Z" sodipodi:nodetypes="czcczcc"/><path id="shape2" transform="matrix(-1 0 0 1 166.311702402322 160.934287629751)" fill="url(#gradient2)" fill-rule="evenodd" stroke="none" stroke-width="1.044543" stroke-linecap="square" stroke-linejoin="bevel" d="M18.2829 8.39609C12.9584 8.41973 9.06334 7.93354 6.59773 6.93751C4.13213 5.94148 1.93288 4.68038 0 3.15421C2.93482 1.5683 6.3872 0.615961 10.3571 0.297194C14.3271 -0.0215727 16.7228 -0.0839104 17.5442 0.110181C19.2446 0.000933213 19.4908 2.7629 18.2829 8.39609Z" sodipodi:nodetypes="czczcc"/><path id="shape3" transform="matrix(-1 0 0 1 166.580300405836 146.953727240946)" fill="url(#gradient3)" fill-rule="evenodd" stroke="none" stroke-width="1.044543" stroke-linecap="square" stroke-linejoin="bevel" d="M12.6422 14.9366C9.1969 10.711 7.03454 8.06415 6.15508 6.99601C5.27561 5.92787 3.22392 4.11038 0 1.54355L1.04754 0C4.15699 2.41503 6.98392 5.08777 9.52833 8.01822C13.345 12.4139 15.3859 14.5852 15.3464 14.6C15.3068 14.6149 14.8226 15.1849 12.6422 14.9366Z" sodipodi:nodetypes="czcczcc"/><path id="shape4" transform="matrix(1.0356341869822 0 0 1.01944413364145 -5.32638773995626 12.2842165263736)" fill="#c59e5b" fill-opacity="0.72156862745098" fill-rule="evenodd" stroke="none" stroke-width="1.044543" stroke-linecap="square" stroke-linejoin="bevel" d="M159.662 115.667L159.654 115.875L159.651 116.089L159.652 116.306L159.658 116.528L159.669 116.755L159.684 116.986L159.705 117.222L159.729 117.462L159.759 117.706L159.794 117.955L159.833 118.208L159.877 118.466L159.925 118.728L159.978 118.995L160.037 119.266L160.099 119.542L160.167 119.822L160.239 120.107L160.316 120.396L160.398 120.69L160.484 120.988L160.575 121.29L160.671 121.597L160.772 121.909L160.877 122.225L160.987 122.545L161.102 122.87L161.222 123.199L161.346 123.533L161.475 123.871L161.609 124.214L161.747 124.561L161.891 124.913L162.039 125.269L162.191 125.63L162.349 125.995L162.511 126.364L162.678 126.738L162.849 127.117L163.026 127.499L163.207 127.887L163.404 128.304L163.601 128.715L163.798 129.119L163.994 129.517L164.189 129.909L164.384 130.294L164.578 130.673L164.772 131.045L164.965 131.411L165.157 131.77L165.349 132.123L165.54 132.47L165.731 132.81L165.921 133.144L166.111 133.472L166.3 133.793L166.488 134.107L166.676 134.415L166.864 134.717L167.05 135.013L167.236 135.302L167.422 135.584L167.607 135.86L167.792 136.13L167.975 136.393L168.159 136.65L168.341 136.901L168.524 137.145L168.705 137.383L168.886 137.614L169.067 137.839L169.246 138.057L169.426 138.27L169.604 138.475L169.783 138.674L169.96 138.867L170.137 139.054L170.314 139.234L170.3 139.598L170.279 139.956L170.251 140.309L170.216 140.656L170.173 140.997L170.123 141.333L170.065 141.663L170 141.987L169.928 142.306L169.848 142.619L169.761 142.926L169.667 143.227L169.565 143.523L169.456 143.814L169.34 144.098L169.216 144.377L169.085 144.65L168.946 144.918L168.801 145.179L168.647 145.436L168.487 145.686L168.319 145.931L168.144 146.17L167.961 146.403L167.762 146.646L167.553 146.893L167.334 147.144L167.106 147.399L166.868 147.658L166.621 147.922L166.363 148.19L166.097 148.461L165.82 148.737L165.534 149.017L165.238 149.302L164.932 149.59L164.617 149.883L164.292 150.179L163.957 150.48L163.613 150.785L163.259 151.094L162.895 151.408L162.522 151.725L162.139 152.047L161.746 152.372L161.343 152.702L160.931 153.036L151.901 154.488L151.903 155.1L150 154.794L148.097 155.1L148.099 154.488L139.069 153.036L138.657 152.702L138.254 152.372L137.861 152.047L137.478 151.725L137.105 151.408L136.741 151.094L136.387 150.785L136.043 150.48L135.708 150.179L135.383 149.883L135.068 149.59L134.762 149.302L134.466 149.017L134.18 148.737L133.903 148.461L133.637 148.19L133.379 147.922L133.132 147.658L132.894 147.399L132.666 147.144L132.447 146.893L132.238 146.646L132.039 146.403L131.856 146.17L131.681 145.931L131.513 145.686L131.353 145.436L131.199 145.179L131.054 144.918L130.915 144.65L130.784 144.377L130.66 144.098L130.544 143.814L130.435 143.523L130.333 143.227L130.239 142.926L130.152 142.619L130.072 142.306L130 141.987L129.935 141.663L129.877 141.333L129.827 140.997L129.784 140.656L129.749 140.309L129.721 139.956L129.7 139.598L129.686 139.234L129.863 139.054L130.04 138.867L130.217 138.674L130.396 138.475L130.574 138.27L130.754 138.057L130.933 137.839L131.114 137.614L131.295 137.383L131.476 137.145L131.659 136.901L131.841 136.65L132.025 136.393L132.208 136.13L132.393 135.86L132.578 135.584L132.764 135.302L132.95 135.013L133.136 134.717L133.324 134.415L133.512 134.107L133.7 133.793L133.889 133.472L134.079 133.144L134.269 132.81L134.46 132.47L134.651 132.123L134.843 131.77L135.035 131.411L135.228 131.045L135.422 130.673L135.616 130.294L135.811 129.909L136.006 129.517L136.202 129.119L136.399 128.715L136.596 128.304L136.793 127.887L136.974 127.499L137.151 127.117L137.322 126.738L137.489 126.364L137.651 125.995L137.809 125.63L137.961 125.269L138.109 124.913L138.253 124.561L138.391 124.214L138.525 123.871L138.654 123.533L138.778 123.199L138.898 122.87L139.013 122.545L139.123 122.225L139.228 121.909L139.329 121.597L139.425 121.29L139.516 120.988L139.602 120.69L139.684 120.396L139.761 120.107L139.833 119.822L139.901 119.542L139.963 119.266L140.022 118.995L140.075 118.728L140.123 118.466L140.167 118.208L140.206 117.955L140.241 117.706L140.271 117.462L140.295 117.222L140.316 116.986L140.331 116.755L140.342 116.528L140.348 116.306L140.349 116.089L140.346 115.875L140.338 115.667L140.929 115.67L141.505 115.674L142.065 115.678L142.609 115.682L143.138 115.686L143.651 115.69L144.148 115.694L144.63 115.699L145.096 115.703L145.547 115.708L145.981 115.712L146.4 115.717L146.804 115.722L147.191 115.727L147.564 115.732L147.92 115.737L148.261 115.742L148.586 115.748L148.895 115.753L149.189 115.759L149.467 115.764L149.729 115.77L149.976 115.776L150 115.776L150.024 115.776L150.271 115.77L150.533 115.764L150.811 115.759L151.105 115.753L151.414 115.748L151.739 115.742L152.08 115.737L152.436 115.732L152.809 115.727L153.196 115.722L153.6 115.717L154.019 115.712L154.453 115.708L154.904 115.703L155.37 115.699L155.852 115.694L156.349 115.69L156.862 115.686L157.391 115.682L157.935 115.678L158.495 115.674L159.071 115.67L159.662 115.667" sodipodi:nodetypes="ccccccccccccccccccccccccccccccccccccccccccccccccccccccccccccccccccccccccccccccccccccccccccccccccccccccccccccccccccccccccccccccccccccccccccccccccccccccccccccccccccccccccccccccccccccccccccccccccccccccccccccccccccccccccccccccccccccccccccccccccccccccccccccccccccccccccccccccccccccccccccccccccccccccccccccccccccc"/><path id="shape5" transform="translate(132.831774693466, 164.129274528391)" fill="url(#gradient4)" fill-rule="evenodd" stroke="none" stroke-width="1.044543" stroke-linecap="square" stroke-linejoin="bevel" d="M18.3692 4.82057C15.2319 4.75009 12.6465 4.16272 9.37617 3.70497C6.5418 2.52202 3.52094 2.42866 0.867483 0C1.50629 0.779029 1.30848 1.9655 1.22969 2.86723C0.561375 2.98009 0.483952 3.01705 0 3.76783C0.332001 4.63812 0.244874 5.21379 0.481309 6.08407C1.68768 7.00033 3.94254 8.19186 5.90022 8.93316C7.36824 9.4812 10.6223 10.5533 14.2642 10.652C15.6707 10.7605 17.3304 10.7252 18.5562 10.6485C19.2091 8.44426 19.1468 6.50162 18.3692 4.82057Z" sodipodi:nodetypes="cccccccccc"/><path id="shape6" transform="matrix(-1 0 0 1 167.168225306534 164.129274528391)" fill="url(#gradient5)" fill-rule="evenodd" stroke="none" stroke-width="1.044543" stroke-linecap="square" stroke-linejoin="bevel" d="M18.3692 4.82057C15.2319 4.75009 12.6465 4.16272 9.37617 3.70497C6.5418 2.52202 3.52094 2.42866 0.867483 0C1.50629 0.779029 1.30848 1.9655 1.22969 2.86723C0.561375 2.98009 0.483952 3.01705 0 3.76783C0.332001 4.63812 0.244874 5.21379 0.481309 6.08407C1.68768 7.00033 3.94254 8.19186 5.90022 8.93316C7.36824 9.4812 10.6223 10.5533 14.2642 10.652C15.6707 10.7605 17.3304 10.7252 18.5562 10.6485C17.1204 8.28717 17.0581 6.34453 18.3692 4.82057Z" sodipodi:nodetypes="cccccccccc"/><path id="shape7" transform="matrix(-1 0 0 1 162.609848673953 143.343212455357)" fill="url(#gradient6)" fill-rule="evenodd" stroke="none" stroke-width="1.044543" stroke-linecap="square" stroke-linejoin="bevel" d="M4.23392 26.1932C3.60237 26.3422 3.14601 25.9436 2.5205 25.1839C1.85781 23.9594 0.986075 22.0714 0.289146 20.0349C-0.214871 18.1028 0.0306152 17.0839 0.341512 15.8134C4.19929 10.9723 8.23586 7.74348 13.0613 5.16416C19.5252 2.28225 21.9928 1.71028 28.2513 0.099355C29.4384 -0.138361 30.0137 0.0998045 30.4722 0.299279C31.1597 0.673152 31.4368 1.6128 31.3123 2.50468C30.708 3.75549 30.2886 4.08085 29.1337 5.13871L28.0809 3.85495C28.4979 3.19958 29.8081 2.63942 29.5886 1.75853C29.1713 1.4662 28.6568 1.51147 27.6771 1.781C22.954 3.30325 20.2363 4.66142 13.5075 7.38443C9.29786 9.64318 5.28405 12.1545 2.34005 16.3541C1.96633 17.4896 1.01752 18.983 2.08428 20.1136C3.38412 24.6112 3.82931 23.4648 4.58921 24.7896C4.71725 25.4294 4.59883 25.8972 4.23392 26.1932Z" sodipodi:nodetypes="ccccccccccccccccc"/><path id="shape8" transform="translate(137.030648008427, 143.320692440152)" fill="url(#gradient7)" fill-rule="evenodd" stroke="none" stroke-width="1.044543" stroke-linecap="square" stroke-linejoin="bevel" d="M4.59343 26.1782C3.96188 26.3272 3.50551 25.9286 2.88 25.1689C2.21731 23.9445 1.1487 22.0564 0.451774 20.02C-0.497799 18.0878 0.279325 17.1439 0.701015 15.8734C4.43566 10.6939 8.87476 7.48477 13.777 5.08355C20.3968 2.34451 22.6033 1.58384 28.7983 0L30.7192 0.312424C31.5591 0.838783 31.6557 1.81344 31.5312 2.70532C30.9268 3.95614 30.546 4.02599 29.3911 5.08386C29.1235 5.17207 28.5001 4.11767 28.4779 3.80715C29.1247 3.22838 30.2427 2.51196 30.0231 1.63105C29.6058 1.33872 29.185 1.62774 28.2053 1.89727C23.4149 3.36217 20.3714 4.35029 13.8201 7.33195C9.56866 9.54887 5.41268 11.9086 2.69955 16.3391C2.50299 17.4746 1.57464 18.968 2.44378 20.0986C3.74363 24.5962 4.18882 23.4498 4.94871 24.7746C5.07676 25.4144 4.95833 25.8823 4.59343 26.1782Z" sodipodi:nodetypes="ccccccccccccccccc"/><path id="shape9" transform="matrix(-1 0 0 1 162.10187783445 112.951881257382)" fill="url(#gradient8)" fill-rule="evenodd" stroke="none" stroke-width="1.044543" stroke-linecap="square" stroke-linejoin="bevel" d="M7.58163 5.44655C7.19625 4.74799 7.24894 4.2362 7.04574 3.52798C7.25686 2.55731 7.57557 1.57679 8.51941 0.823194C9.26235 0.33155 10.3106 0.222782 11.2554 0.0574206C11.8142 0.0555926 12.6312 -0.131334 13.0573 0.179298L12.7204 22.9676L7.35688 22.737C5.59743 22.398 3.28571 21.7834 1.34239 20.5109C0.673055 19.55 0.38957 17.8561 0 16.4028C1.80736 13.8241 1.22502 14.0556 1.72413 11.7887C1.97536 10.417 2.3903 9.32386 2.4097 7.90665C3.35788 6.86339 3.74511 6.29013 6.47445 6.13755C8.61314 6.06425 7.2531 6.32375 8.22063 6.17657C7.94303 6.03457 7.73003 5.79123 7.58163 5.44655Z" sodipodi:nodetypes="cccccccccccccc"/><path id="shape10" transform="translate(137.89812216555, 112.951881257382)" fill="url(#gradient9)" fill-rule="evenodd" stroke="none" stroke-width="1.044543" stroke-linecap="square" stroke-linejoin="bevel" d="M8.44413 5.3903C7.89 4.93549 7.49269 4.3112 7.28949 3.60298C7.50061 2.63231 7.81932 1.83929 8.76316 1.08569C9.5061 0.59405 10.3106 0.222782 11.2554 0.0574206C11.8142 0.0555926 12.6312 -0.131334 13.0573 0.179298L12.7204 22.9676L7.35688 22.737C5.59743 22.398 3.28571 21.7834 1.34239 20.5109C0.673055 19.55 0.38957 17.8561 0 16.4028C1.80736 13.8241 1.22502 14.0556 1.72413 11.7887C1.97536 10.417 2.3903 9.32386 2.4097 7.90665C3.35788 6.86339 3.37011 6.29013 6.09945 6.13755C6.86241 6.14359 7.21567 6.09833 8.22063 6.02657C8.64303 6.04707 8.71753 5.83498 8.44413 5.3903Z" sodipodi:nodetypes="cccccccccccccc"/><path id="shape11" transform="translate(135.146815119383, 96.9334690509365)" fill="url(#gradient10)" fill-rule="evenodd" stroke="none" stroke-width="1.044543" stroke-linecap="square" stroke-linejoin="bevel" d="M15.7161 3.65612C14.2505 3.43039 12.8605 3.43098 10.8959 3.98034C8.86017 6.48727 6.0814 10.1776 4.43906 13.4147C6.03353 15.877 8.43209 18.3451 10.512 19.1073C10.0088 19.7759 10.8559 20.6183 11.1962 21.0821L11.6901 21.8959C11.877 22.2437 10.721 22.1664 10.3669 22.2888C6.06367 22.0294 6.00253 20.3004 4.06267 18.5243C1.99921 16.6923 0.927754 14.0019 0 11.6788C4.38142 6.19212 4.94151 6.06421 8.4765 0.618561C13.7651 0.0736646 13.3739 0.0301562 15.8786 0L16.5022 2.01481C16.5174 3.06112 16.2553 3.60823 15.7161 3.65612Z" sodipodi:nodetypes="ccccccccccccc"/><path id="shape12" transform="matrix(-1 0 0 1 164.853184880617 96.9334690509365)" fill="url(#gradient11)" fill-rule="evenodd" stroke="none" stroke-width="1.044543" stroke-linecap="square" stroke-linejoin="bevel" d="M15.7161 3.65612C14.2505 3.43039 12.8605 3.43098 10.8959 3.98034C8.86017 6.48727 6.0814 10.1776 4.43906 13.4147C6.03353 15.877 8.07584 17.9701 10.1558 18.7323C9.65251 19.4009 10.0403 20.6652 10.3806 21.129L11.2213 21.924C11.2468 22.1919 11.2945 22.4685 10.5169 22.4201C8.50117 22.4419 6.00253 20.3004 4.06267 18.5243C1.99921 16.6923 0.927754 14.0019 0 11.6788C4.38142 6.19212 4.94151 6.06421 8.4765 0.618561C13.7651 0.0736646 13.3739 0.0301562 15.8786 0L16.5022 2.01481C16.5174 3.06112 16.2553 3.60823 15.7161 3.65612Z" sodipodi:nodetypes="ccccccccccccc"/>
</svg>
