<?xml version="1.0" encoding="UTF-8" standalone="no"?>
<!-- Created using Krita: https://krita.org -->

<svg
   width="42.225574pt"
   height="78.067101pt"
   viewBox="0 0 42.225574 78.0671"
   version="1.1"
   id="svg24"
   xmlns="http://www.w3.org/2000/svg"
   xmlns:svg="http://www.w3.org/2000/svg">
  <defs
     id="defs24">
    <linearGradient
       id="gradient0"
       gradientUnits="userSpaceOnUse"
       x1="0"
       y1="5.6435752e-08"
       x2="12.642739"
       y2="12.642739"
       spreadMethod="pad"
       gradientTransform="matrix(1.5056415,0,0,0.66416875,9.7074309,69.000818)">
      <stop
         stop-color="#6c5752"
         offset="0"
         stop-opacity="1"
         id="stop1" />
      <stop
         stop-color="#5a4132"
         offset="1"
         stop-opacity="1"
         id="stop2" />
    </linearGradient>
    <linearGradient
       id="gradient1"
       gradientUnits="userSpaceOnUse"
       x1="0"
       y1="0"
       x2="15.074574"
       y2="15.074574"
       spreadMethod="pad"
       gradientTransform="matrix(1.0059391,0,0,0.99409601,9.4247699,54.992133)">
      <stop
         stop-color="#6c5752"
         offset="0"
         stop-opacity="1"
         id="stop3" />
      <stop
         stop-color="#5a4132"
         offset="1"
         stop-opacity="1"
         id="stop4" />
    </linearGradient>
  </defs>
  <g
     id="g24"
     transform="translate(-4.9250572,-4.9243279)">
    <path
       id="shape0"
       style="display:none;fill:url(#gradient0)"
       d="m 26.019043,69.003418 c -0.288176,0.0054 -0.533198,0.01819 -0.741211,0.03662 -1.248825,0.0061 -2.824527,0.066 -5.213379,0.257813 -3.9699,0.318767 -7.421625,1.270535 -10.3564452,2.856445 1.9328802,1.52617 4.1320562,2.787661 6.5976562,3.783691 1.806849,0.729911 4.380508,1.185844 7.722656,1.368164 0.0064,0.03 0.01258,0.06066 0.01904,0.09082 0.680409,0.003 1.337957,-0.0025 1.97168,-0.01611 0.633723,0.01363 1.291271,0.01914 1.97168,0.01611 0.0065,-0.03016 0.01266,-0.06083 0.01904,-0.09082 3.342148,-0.18232 5.915807,-0.638253 7.722656,-1.368164 2.4656,-0.99603 4.666241,-2.257521 6.599121,-3.783691 -2.93482,-1.58591 -6.38801,-2.537678 -10.35791,-2.856445 -2.387512,-0.191703 -3.961685,-0.251595 -5.210449,-0.257813 -0.20838,-0.01853 -0.455137,-0.03123 -0.744141,-0.03662 z" />
    <path
       id="shape1"
       style="display:none;fill:url(#gradient1)"
       d="m 10.52832,54.992188 -1.103027,1.697753 c 3.317671,2.40745 5.416438,4.145239 6.295898,5.213379 0.87946,1.06815 2.999492,3.733582 6.360352,7.996582 2.146331,0.244519 2.457883,-0.167668 2.504883,-0.194824 h 0.0015 c 0.0395,-0.0148 -2.250415,-2.449554 -5.535645,-6.666504 -2.19013,-2.81127 -5.032065,-5.493426 -8.523926,-8.046386 z m 31.023926,0.02783 c -3.10945,2.41503 -5.937035,5.088104 -8.481445,8.018554 -3.81667,4.39568 -5.85786,6.566743 -5.81836,6.581543 h 0.0015 l 0.0015,0.0015 c 0.05296,0.03141 0.554841,0.57987 2.701172,0.335449 3.4453,-4.2256 5.608333,-6.872778 6.487793,-7.940918 0.87947,-1.06814 2.931353,-2.885318 6.155273,-5.452148 z" />
    <path
       id="shape4"
       fill="#c59e5b"
       fill-opacity="0.721569"
       fill-rule="evenodd"
       stroke-opacity="0"
       stroke="#000000"
       stroke-width="0"
       stroke-linecap="square"
       stroke-linejoin="bevel"
       d="m 36.397749,41.791338 0.03473,0.144433 0.06421,0.281367 0.07042,0.285444 0.07457,0.290542 0.07974,0.294619 0.08492,0.299717 0.08907,0.303794 0.09424,0.307872 0.09942,0.31297 0.1046,0.318066 0.108741,0.322144 0.11392,0.326223 0.119098,0.331319 0.124276,0.335397 0.128419,0.340494 0.133596,0.344572 0.138775,0.34967 0.142918,0.353747 0.149131,0.358844 0.153274,0.362922 0.157416,0.36802 0.163631,0.372097 0.167772,0.376175 0.172951,0.381272 0.177094,0.386369 0.183307,0.389428 0.18745,0.395544 0.20402,0.425108 0.20402,0.418992 0.11027,0.215566 m 0.797311,1.590425 0.104233,0.19008 0.200913,0.379234 0.199878,0.373116 0.198841,0.365981 0.198842,0.359863 0.197806,0.353748 0.197806,0.346611 0.196771,0.340494 0.19677,0.334378 0.195735,0.327241 0.1947,0.320106 0.194699,0.313988 0.194699,0.307873 0.192628,0.301755 0.192628,0.294619 0.192628,0.287484 0.191592,0.281366 0.191593,0.27525 0.189521,0.268114 0.190556,0.261997 0.188486,0.255881 0.189521,0.248744 0.18745,0.242628 0.187449,0.235491 0.18745,0.229375 0.185379,0.222239 0.186414,0.217142 0.184343,0.208986 0.185378,0.202869 0.183307,0.196753 0.183308,0.190636 0.183307,0.1835 -0.0145,0.371077 -0.02175,0.364961 -0.029,0.359864 -0.03625,0.353747 -0.04453,0.347631 -0.05178,0.342533 -0.06007,0.336416 -0.06732,0.3303 -0.07457,0.325203 -0.08285,0.319086 -0.0901,0.312969 -0.09735,0.306853 -0.105635,0.301756 -0.112884,0.296658 -0.120134,0.289522 -0.128418,0.284425 -0.135668,0.278308 -0.143954,0.273211 -0.150167,0.266075 -0.159487,0.261997 -0.165702,0.254861 -0.173986,0.249764 -0.181236,0.243647 -0.189521,0.237531 -0.206091,0.247725 -0.216448,0.251802 -0.226804,0.255881 -0.236125,0.259958 -0.24648,0.264036 -0.255802,0.269133 -0.267194,0.273211 -0.275478,0.27627 -0.286871,0.281366 -0.296191,0.285445 -0.306548,0.290541 -0.319834,0.302389 M 10.935165,73.136373 10.573784,72.849395 10.25688,72.555795 9.9503319,72.265254 9.6541409,71.979809 9.3672699,71.698443 9.0917909,71.422173 8.8245979,71.148962 8.5687961,70.879829 8.3223152,70.615793 8.0861906,70.355835 7.8593867,70.099954 7.6429392,69.848152 7.436848,69.600427 7.2473269,69.362896 7.0660909,69.119249 6.8921044,68.869485 6.7264029,68.614624 6.5669152,68.352627 6.4167483,68.086552 6.2727951,67.813341 6.137127,67.535033 6.0087084,67.250608 5.8885748,66.961086 5.7756907,66.664428 5.670056,66.362672 5.572706,66.055819 5.482606,65.74285 5.399755,65.423764 5.325189,65.098561 5.257873,64.768261 5.197806,64.431845 5.146024,64.089312 5.101492,63.741681 5.065245,63.387934 5.036247,63.02807 5.014499,62.663109 5,62.292032 l 0.1833073,-0.1835 0.1833072,-0.190636 0.1833073,-0.196753 0.1853785,-0.202869 0.1843429,-0.208986 0.1864141,-0.217142 0.1853785,-0.222239 0.1874498,-0.229375 0.1874498,-0.235491 0.1874498,-0.242628 0.1895211,-0.248744 0.1884854,-0.255881 0.1905567,-0.261997 0.189521,-0.268114 0.1915924,-0.27525 0.1915923,-0.281366 0.1926279,-0.287484 0.192628,-0.294619 0.192628,-0.301755 0.1946994,-0.307873 0.194699,-0.313988 0.194699,-0.320106 0.195735,-0.327241 0.196771,-0.334378 0.19677,-0.340494 0.197806,-0.346611 0.1978056,-0.353748 0.198842,-0.359863 0.198842,-0.365981 0.199877,-0.373116 0.200913,-0.379234 0.159897,-0.304338 m 0.715281,-1.408784 0.136637,-0.282949 0.20402,-0.418992 0.20402,-0.425108 0.18745,-0.395544 0.183307,-0.389428 0.177094,-0.386369 0.172951,-0.381272 0.167773,-0.376175 0.16363,-0.372097 0.157416,-0.36802 0.153274,-0.362922 0.149131,-0.358844 0.142918,-0.353747 0.138775,-0.34967 0.133597,-0.344572 0.128418,-0.340494 0.124276,-0.335397 0.119098,-0.331319 0.11392,-0.326223 0.108742,-0.322144 0.104599,-0.318066 0.09942,-0.31297 0.09424,-0.307872 0.08906,-0.303794 0.08492,-0.299717 0.07974,-0.294619 0.07456,-0.290542 0.07042,-0.285444 0.06421,-0.281367 0.02008,-0.123925"
       style="display:inline;fill:none;fill-opacity:0.3;stroke:#000000;stroke-width:0.15;stroke-dasharray:none;stroke-opacity:1" />
    <path
       id="shape5"
       style="fill:#000000;fill-opacity:0.3;stroke:#000000;stroke-width:0.15;stroke-dasharray:none;stroke-opacity:1"
       d="m 41.848145,51.387207 c -6.195,1.58384 -8.402173,2.343968 -15.021973,5.083008 -0.252372,0.123617 -0.503046,0.249872 -0.75293,0.37793 -0.167611,-0.09227 -0.335839,-0.183307 -0.505371,-0.273926 -6.4639,-2.88191 -8.931929,-3.454505 -15.19043,-5.06543 -1.1870993,-0.237716 -1.7622027,0.0012 -2.2207027,0.200684 -0.6875,0.373873 -0.9638555,1.31271 -0.8393555,2.20459 0.6043,1.25081 0.8680495,1.449952 2.0229493,2.507812 l 0.8671869,-1.497071 c -0.4169998,-0.65537 -1.3869799,-0.875457 -1.1674799,-1.756347 0.4173,-0.29233 0.9319212,-0.247557 1.9116209,0.02197 4.362406,1.405998 7.014314,2.671688 12.695801,5.002441 -3.65032,2.192983 -6.987112,5.032436 -9.896484,9.067383 -0.42169,1.2705 -1.198597,2.214773 -0.249024,4.146973 0.426032,1.244854 0.990211,2.434883 1.516113,3.451171 -1.820216,-0.531983 -3.632469,-1.137005 -5.2998043,-2.663085 0.6388073,0.779029 0.4406063,1.966434 0.3618163,2.868164 -0.6683149,0.11286 -0.7450518,0.150098 -1.2290038,0.900878 0.332001,0.87029 0.2440338,1.445638 0.4804688,2.315918 1.206371,0.91626 3.462242,2.107822 5.419922,2.849122 1.46802,0.54804 4.722358,1.619561 8.364258,1.718261 0.923677,0.07125 1.95585,0.08091 2.90332,0.05713 0.94747,0.02378 1.981108,0.01412 2.904785,-0.05713 3.6419,-0.0987 6.894773,-1.170221 8.362793,-1.718261 1.95768,-0.7413 4.213551,-1.932862 5.419922,-2.849122 0.236435,-0.87028 0.148468,-1.445628 0.480469,-2.315918 -0.483952,-0.75078 -0.560689,-0.788018 -1.229004,-0.900878 -0.07879,-0.90173 -0.276991,-2.089135 0.361816,-2.868164 -1.684398,1.541697 -3.516482,2.143179 -5.355469,2.679199 0.465849,-1.011463 0.952492,-2.193159 1.375489,-3.429199 0.504017,-1.932101 0.258165,-2.95118 -0.05273,-4.22168 -3.129508,-3.92719 -6.375903,-6.79363 -10.066411,-9.11279 5.644007,-2.516493 8.585515,-3.466263 13.03418,-4.82666 0.9797,-0.26952 1.400571,-0.558932 1.817871,-0.266602 0.2196,0.88091 -0.534008,1.341109 -1.180808,1.919879 0.142353,0.269088 0.650605,1.158394 0.777336,1.351922 1.1549,-1.05787 1.307861,-0.945786 1.912261,-2.196606 0.1245,-0.89188 0.02691,-1.867195 -0.812988,-2.393554 z m -15.936036,7.835449 c 3.919003,2.151942 7.61783,4.60563 10.376953,8.541504 0.373722,1.1355 1.323108,2.628189 0.256348,3.758789 -1.051189,3.63724 -1.544066,3.582511 -2.096191,4.129395 -0.213684,0.07768 -0.426847,0.160616 -0.638672,0.249023 -2.844214,0.398106 -5.169807,0.893113 -7.791504,1.062012 -2.621697,-0.168899 -4.94729,-0.663906 -7.791504,-1.062012 -0.193432,-0.08073 -0.388009,-0.156836 -0.583008,-0.228515 -0.575001,-0.611578 -1.064087,-0.427815 -2.15039,-4.186524 -0.86914,-1.1306 0.05832,-2.624754 0.254882,-3.760254 2.508903,-4.097 6.252017,-6.42339 10.163086,-8.503418 z" />
    <path
       id="shape9"
       style="fill:#000000;fill-opacity:0.3;stroke:#000000;stroke-width:0.15;stroke-dasharray:none;stroke-opacity:1"
       d="m 24.993652,5 -0.02051,0.067383 c -0.9561,0.068685 -2.051786,0.212961 -5.330567,0.5507813 -3.53499,5.4456487 -4.09563,5.5743547 -8.477051,11.0610347 0.927754,2.3231 2.000017,5.013215 4.063477,6.845215 1.730708,1.584605 1.965793,3.131912 5.052246,3.631348 -0.0833,7.71e-4 -0.171439,7.37e-4 -0.265137,0 -2.72934,0.15258 -2.740296,0.726271 -3.688476,1.769531 -0.0194,1.41721 -0.434317,2.510136 -0.685547,3.881836 -0.49911,2.2669 0.08324,2.035558 -1.724121,4.614258 0.38957,1.4533 0.672462,3.146522 1.341797,4.107422 1.94332,1.2725 4.255198,1.887562 6.014648,2.226562 l 4.125,0.177246 0.0015,0.05273 0.618164,-0.02637 0.618164,0.02637 0.0015,-0.05273 4.125,-0.177246 c 1.75945,-0.339 4.071328,-0.954062 6.014648,-2.226562 0.669335,-0.9609 0.953692,-2.654122 1.343262,-4.107422 -1.80736,-2.5787 -1.225011,-2.347358 -1.724121,-4.614258 -0.25123,-1.3717 -0.666147,-2.464626 -0.685547,-3.881836 -0.940842,-1.035186 -1.329529,-1.608732 -4.001953,-1.766602 1.708011,-0.620659 3.575794,-2.239547 5.099121,-3.634277 2.06346,-1.832 3.135723,-4.522115 4.063477,-6.845215 C 36.491139,11.192519 35.930498,11.063813 32.395508,5.6181641 29.116727,5.2803438 28.021041,5.136068 27.064941,5.0673828 L 27.044434,5 C 26.638826,5.00488 26.309184,5.00992 26.019043,5.017578 25.728902,5.0099218 25.39926,5.0048835 24.993652,5 Z m -0.196289,3.5214844 c 0.101667,0.077594 0.220947,0.1225143 0.358887,0.1347656 0.288916,-0.044498 0.574772,-0.08103 0.862793,-0.1054688 0.288021,0.024439 0.573877,0.06097 0.862793,0.1054688 0.13794,-0.012251 0.258685,-0.057172 0.360352,-0.1347656 0.814851,0.030966 1.694195,0.1674947 2.734863,0.4584961 2.03573,2.5069295 4.813226,6.1979585 6.455566,9.4350585 -1.5617,2.411695 -3.551423,4.469333 -5.586914,5.269043 -0.225455,-0.671428 -0.580689,-1.313439 -1.243652,-1.842773 -0.74294,-0.491644 -1.791528,-0.600753 -2.736328,-0.766114 -0.05394,-1.73e-4 -0.110286,-0.0014 -0.168457,-0.0044 -0.200719,-0.05389 -0.437442,-0.05814 -0.678223,-0.04687 -0.12039,-0.0056 -0.240176,-0.008 -0.354492,-0.0015 -0.114316,0.0065 -0.223372,0.0214 -0.323731,0.04834 -0.05817,0.003 -0.114513,0.0042 -0.168457,0.0044 -0.9448,0.165361 -1.748759,0.536681 -2.491699,1.028321 -0.729222,0.58224 -1.085059,1.18906 -1.306641,1.882324 -2.006162,-0.878381 -4.251085,-3.227412 -5.768554,-5.570801 1.64234,-3.2371 4.421301,-6.928129 6.457031,-9.4350585 1.040668,-0.2910014 1.920011,-0.4275296 2.734863,-0.4584961 z" />
  </g>
</svg>
