<?xml version="1.0" encoding="UTF-8" standalone="no"?>
<!-- Created with Inkscape (http://www.inkscape.org/) -->

<svg
   width="1086.3785mm"
   height="1086.3784mm"
   viewBox="0 0 1086.3786 1086.3785"
   version="1.1"
   id="svg1"
   xml:space="preserve"
   xmlns="http://www.w3.org/2000/svg"
   xmlns:svg="http://www.w3.org/2000/svg"><defs
     id="defs1" /><g
     id="layer1"
     transform="translate(1449.8504,282.50597)"><g
       id="g4"
       transform="translate(-1011.7667,112.18333)"
       style="display:inline"><ellipse
         style="display:none;opacity:1;fill:#000000;fill-opacity:1;stroke:none;stroke-width:1;stroke-dasharray:none;stroke-opacity:1"
         id="path8"
         cx="105.10572"
         cy="148.50002"
         rx="541.86652"
         ry="541.86639" /><path
         id="ellipse1"
         style="display:inline;opacity:1;fill:#000000;fill-opacity:0.3;stroke:#000000;stroke-width:2.64583;stroke-dasharray:none;stroke-opacity:1"
         d="m 105.10586,-393.36638 c -143.71192,-4e-5 -281.53778,57.08905 -383.15749,158.70866 -101.61971,101.61962 -158.70912,239.4456035 -158.70918,383.15749 -7e-5,143.71198 57.08946,281.53777 158.70918,383.15749 101.61973,101.61973 239.44548,158.70922 383.15749,158.70918 143.71192,-10e-5 281.53788,-57.08947 383.15749,-158.70918 C 589.88296,430.03755 646.97208,292.21166 646.97201,148.49977 646.97195,4.7879736 589.88243,-133.0376 488.26284,-234.6572 386.64324,-336.2768 248.81769,-393.36628 105.10586,-393.36638 Z m 47.38161,118.63204 c 12.59004,0.0231 26.61195,1.04226 45.22256,3.07578 42.24057,4.61551 79.79392,23.05378 91.42284,28.76207 25.71999,12.62518 58.44658,32.89515 71.62199,43.82729 12.74631,10.5761 58.77715,63.41751 73.47665,81.94332 14.41181,18.163254 68.9308,101.142224 88.91602,145.7694 18.1048,40.428167 75.01764,160.16542 75.01764,160.16542 0,0 -15.40837,28.7874 -27.37662,49.01044 -13.63421,23.03805 -65.52431,97.36163 -110.54778,141.84923 -39.63217,39.16047 -120.97866,89.50668 -120.97866,89.50668 0,0 -49.21257,32.0146 -114.82917,56.35625 -65.61659,24.34163 -121.6303,38.43434 -121.6303,38.43434 0,0 -46.613849,-12.23529 -83.062627,-29.58165 -6.95733,-3.31107 -36.658525,-17.0358 -66.458993,-32.62695 -30.940256,-16.18748 -64.37232,-39.8748 -83.67965,-53.20967 -15.17024,-10.47753 -48.78604,-33.14029 -80.73305,-59.50903 -63.63581,-52.52437 -107.01495,-105.89283 -133.58151,-139.56875 -26.56656,-33.67593 -58.41866,-109.02538 -58.41866,-109.02538 0,0 2.04332,-1.28084 15.48174,-6.9696 36.90319,-15.62188 84.66711,-42.316271 99.812,-55.003881 56.50072,-47.333376 83.95315,-85.0589435 95.7895,-99.905529 5.21937,-6.546752 29.64338,-39.941552 55.27053,-70.50319 23.23209,-27.70542 54.200824,-58.77006 54.200824,-58.77006 0,0 -7.954166,-0.67909 -22.288044,7.29155 -24.98912,13.89572 -32.3665,24.88272 -32.3665,24.88272 0,0 -7.05671,-5.47988 -11.41843,-12.31915 -1.93505,-3.03421 -5.04489,-7.40654 -15.43265,-29.27935 -12.48635,-26.29164 -14.18003,-31.48956 -19.47168,-43.79267 -5.29166,-12.30311 -13.49891,-32.9427 -13.49891,-32.9427 0,0 7.52277,4.00859 17.20308,7.2776 9.58468,3.23672 45.39143,7.84529 66.93958,7.67291 21.657847,-0.17325 64.100247,-9.36411 76.838725,-11.98324 9.764904,-2.00775 98.647816,-27.97875 122.921696,-32.73082 27.647829,-5.4126 44.654459,-8.14178 65.637859,-8.10338 z"
         transform="translate(5.2083333e-6)" /><path
         style="display:none;opacity:1;fill:#f0eab2;fill-opacity:1;stroke:none;stroke-width:1;stroke-dasharray:none;stroke-opacity:1"
         d="m -142.10826,174.2744 c 0,0 157.353553,-66.99178 254.63965,-173.2581289 C 209.81749,-105.2501 227.77802,-144.91289 227.77802,-144.91289 c 0,0 103.27293,40.41116 142.18737,113.001554 38.91444,72.590394 48.64306,139.193956 32.17926,219.267906 -16.4638,80.07395 -19.07134,152.54535 -34.42433,197.56564 -4.04105,11.84975 -7.23716,20.39872 -10.94445,27.52337 -25.36963,48.75523 -52.34803,26.79097 -60.11181,4.34194 -3.56558,-10.30991 -2.95177,-20.60534 -4.03295,-24.77454 -4.34844,-16.76827 -5.46546,-3.56475 -7.58212,2.78525 -2.11667,6.35 -3.42506,19.66531 -10.08076,36.0122 -11.5127,28.27604 -39.68528,50.0411 -61.47963,16.76733 -6.9291,-10.57877 -9.4287,-13.59233 -12.33912,-33.70066 -2.91042,-20.10833 -6.58248,-10.05094 -7.37623,-1.58428 -0.79375,8.46667 -4.82921,36.68932 -18.10677,52.03442 -28.26255,32.66349 -51.01362,2.50723 -57.33158,-9.43972 -11.65838,-22.04543 -10.36415,-39.32662 -10.36415,-39.32662 0,0 -3.1108,-9.77629 -5.82084,12.37122 -2.674201,21.85472 -9.602487,34.27522 -18.17324,43.63744 -8.260866,9.02371 -36.457848,8.0841 -42.234753,-9.51721 -5.681013,-17.30914 -5.95702,-33.35858 -9.661186,-50.82108 -3.704167,-17.4625 -23.0187499,-58.47292 -45.772916,-78.05209 -22.754167,-19.57916 -55.297916,-40.21666 -63.235416,-45.50833 -7.9375,-5.29167 -35.546599,-17.3301 -50.799999,-66.93958 -13.1345,-42.71808 -14.38066,-46.45687 -14.38066,-46.45687 z"
         id="path11" /><path
         style="display:none;opacity:1;fill:#000000;fill-opacity:1;stroke-width:0.264583"
         d="m 34.847717,172.95511 c 25.024497,75.84989 70.833563,72.67926 86.189663,50.51538 17.26465,-24.91857 22.4034,-70.64245 17.70689,-117.60763 C 134.04776,58.897681 129.18198,37.984804 119.32941,14.423204 99.984666,-31.838138 51.507896,-37.570616 29.759832,15.621774 3.9230771,78.81447 26.675875,148.18605 34.847717,172.95511 Z"
         id="path1" /><path
         style="display:inline;opacity:1;fill:#000000;fill-opacity:0.3;stroke:#000000;stroke-width:2.64583;stroke-dasharray:none;stroke-opacity:1"
         d="m 275.93562,121.29342 c 10.95854,38.3549 17.80935,59.15002 33.07132,78.0796 25.24378,31.31014 52.46401,20.4143 64.77282,3.7181 9.08814,-12.32754 18.78605,-38.74628 15.65505,-108.411287 C 386.30378,25.014804 368.34435,-9.7644503 360.24775,-20.953953 333.01094,-58.595224 285.48535,-40.131478 276.08959,-4.6185314 268.77039,23.0457 267.05311,90.204627 275.93562,121.29342 Z"
         id="path2" /><path
         style="display:inline;opacity:1;fill:#000000;fill-opacity:0.3;stroke:#000000;stroke-width:2.64583;stroke-dasharray:none;stroke-opacity:1"
         d="m 204.50943,175.49907 c 1.48527,-21.40564 10.76284,-24.85241 22.89553,-24.85241 11.51737,0 21.77381,14.01975 25.43946,29.9403 6.08849,26.44338 8.35381,48.63462 2.93533,72.99172 -7.6798,34.52216 -38.38687,16.98164 -45.00831,-9.98011 -7.55863,-30.77786 -6.77505,-60.70554 -6.26201,-68.0995 z"
         id="path3" /><path
         id="path10"
         style="display:none;opacity:1;fill:#275ea4;fill-opacity:1;stroke:none;stroke-width:1;stroke-dasharray:none;stroke-opacity:1"
         d="m 152.48734,-274.73409 c -20.9834,-0.0384 -37.99002,2.69027 -65.637853,8.10287 -24.27388,4.75207 -113.156792,30.72307 -122.921696,32.73082 -12.738478,2.61913 -55.180894,11.81051 -76.838721,11.98376 -21.54815,0.17238 -57.3549,-4.4362 -66.93958,-7.67292 -9.68031,-3.26901 -17.20309,-7.27759 -17.20309,-7.27759 0,0 8.20726,20.63907 13.49892,32.94218 5.29165,12.30311 6.98533,17.50155 19.47168,43.79319 10.38776,21.87281 13.4976,26.24514 15.43265,29.27935 4.36172,6.83927 11.41842,12.31914 11.41842,12.31914 0,0 7.37738,-10.987 32.3665,-24.88272 14.333882,-7.97064 22.288049,-7.29154 22.288049,-7.29154 0,0 -30.968739,31.06464 -54.200829,58.770056 -25.62715,30.561638 -50.05116,63.956438 -55.27053,70.50319 -11.83635,14.8465867 -39.28878,52.572154 -95.7895,99.90553 -15.14489,12.68761 -62.9088,39.381994 -99.81199,55.003874 -13.43842,5.68876 -15.48174,6.96909 -15.48174,6.96909 0,0 31.85209,75.34997 58.41865,109.0259 26.56656,33.67592 69.9457,87.04386 133.58151,139.56823 31.94701,26.36874 65.56282,49.03201 80.73306,59.50954 19.30733,13.33487 52.739389,37.02168 83.679645,53.20916 29.800468,15.59115 59.501663,29.31588 66.458993,32.62695 36.448778,17.34636 83.062632,29.58217 83.062632,29.58217 0,0 56.01371,-14.09323 121.6303,-38.43486 65.6166,-24.34165 114.82917,-56.35625 114.82917,-56.35625 0,0 81.34649,-50.34621 120.97866,-89.50668 45.02347,-44.4876 96.91356,-118.81066 110.54777,-141.84871 11.96825,-20.22304 27.37663,-49.01096 27.37663,-49.01096 0,0 -56.91285,-119.736736 -75.01765,-160.164903 -19.98522,-44.627176 -74.50421,-127.606155 -88.91602,-145.769397 -14.6995,-18.52581 -60.73034,-71.36722 -73.47665,-81.94332 -13.17541,-10.93214 -45.90199,-31.20212 -71.62198,-43.8273 -11.62892,-5.70829 -49.18228,-24.14656 -91.42285,-28.76207 -18.61061,-2.03352 -32.63252,-3.05271 -45.22256,-3.07578 z m 115.07256,49.64245 c 0,0 -3.63802,7.9375 -5.55625,10.64948 -1.91822,2.71198 -5.09323,8.79739 -5.09323,8.79739 0,0 73.09118,54.63649 108.54532,90.09063 35.45413,35.454128 91.88044,111.5812547 122.57208,168.731197 30.69163,57.149943 44.64225,114.325493 44.64225,114.325493 0,0 -39.4796,51.41652 -66.20249,82.10816 -26.7229,30.69163 -71.64309,82.77473 -71.64309,82.77473 0,0 -9.78959,48.68335 -12.17084,56.09167 -2.38124,7.40833 -15.34584,46.56668 -27.25208,56.09167 -11.90624,9.52499 -28.31043,16.66874 -43.65625,11.1125 -15.34581,-5.55625 -14.81667,-5.02709 -14.81667,-5.02709 0,0 -33.07295,30.16252 -66.93958,46.30209 -33.86664,16.13956 -66.14583,24.60625 -66.14583,24.60625 0,0 -40.21668,-11.90626 -58.7375,-21.96042 L 86.584903,489.54794 c 0,0 -17.99168,8.46666 -30.95625,2.64584 -12.96457,-5.82083 -26.193753,-13.75834 -28.839583,-21.96042 -2.64583,-8.20207 -4.7625,-16.66875 -4.7625,-16.66875 0,0 -71.702119,-40.74587 -107.15625,-83.34375 -35.45413,-42.59787 -74.08335,-95.25001 -84.66667,-112.97708 -10.58333,-17.72707 -29.89791,-59.00209 -29.89791,-59.00209 0,0 -15.61043,5.82083 -23.28334,6.35 -7.67291,0.52917 -13.22916,-0.52916 -13.22916,-0.52916 0,0 38.17113,-17.8285 108.14223,-50.75608 C -58.093442,120.37887 -13.192399,89.322134 39.940722,41.427492 93.07387,-6.4671488 160.05207,-76.438357 195.97306,-128.44896 c 35.92099,-52.0106 51.61082,-79.84166 61.00351,-88.4406 9.3927,-8.59895 10.58333,-8.20208 10.58333,-8.20208 z" /><path
         id="path6"
         style="display:inline;opacity:1;fill:#000000;fill-opacity:0.3;stroke:#000000;stroke-width:2.64583;stroke-dasharray:none;stroke-opacity:1"
         d="m 267.52282,-225.095 v 5.2e-4 c -0.25816,0.007 -2.03399,0.41187 -10.54613,8.20467 -9.39269,8.59894 -25.08252,36.42999 -61.00351,88.44059 C 160.05219,-76.438608 93.073995,-6.4674057 39.940847,41.427236 -13.192274,89.321878 -58.093318,120.37861 -128.0644,153.30619 c -69.9711,32.92758 -108.14224,50.7566 -108.14224,50.7566 0,0 5.55626,1.05782 13.22917,0.52865 7.67291,-0.52917 23.28333,-6.35 23.28333,-6.35 0,0 19.31459,41.27553 29.89792,59.0026 10.58332,17.72707 49.21253,70.37869 84.666665,112.97656 35.454131,42.59788 107.15625,83.34375 107.15625,83.34375 0,0 2.11667,8.46668 4.7625,16.66875 2.64583,8.20208 15.875013,16.14011 28.839583,21.96094 12.96457,5.82082 30.95625,-2.64635 30.95625,-2.64635 l 18.520832,10.05416 c 18.52082,10.05416 58.7375,21.96094 58.7375,21.96094 0,0 32.27919,-8.46669 66.14583,-24.60625 33.86663,-16.13957 66.93959,-46.3026 66.93959,-46.3026 0,0 -0.52915,-0.52865 14.81666,5.0276 15.34582,5.55624 31.75001,-1.58751 43.65625,-11.1125 11.90624,-9.52499 24.87085,-48.68386 27.25209,-56.09219 2.38125,-7.40832 12.17083,-56.09166 12.17083,-56.09166 0,0 44.92027,-52.08265 71.64317,-82.77428 26.72289,-30.69164 66.20216,-82.10817 66.20216,-82.10817 0,0 -13.9506,-57.17589 -44.64223,-114.325834 C 457.33607,-3.973036 400.90999,-80.100263 365.45586,-115.5544 c -35.45414,-35.45414 -108.54531,-90.09062 -108.54531,-90.09062 0,0 3.17501,-6.08542 5.09323,-8.7974 1.91823,-2.71198 5.55625,-10.64948 5.55625,-10.64948 0,0 -0.0105,-0.003 -0.0372,-0.003 z m -39.74486,80.18219 c 0,0 103.27275,40.41098 142.18719,113.00137 38.91444,72.590394 48.64323,139.1938 32.17943,219.26775 -16.4638,80.07395 -19.07127,152.54543 -34.42426,197.56572 -4.04105,11.84975 -7.23726,20.39874 -10.94455,27.52339 -25.36963,48.75523 -52.3478,26.79088 -60.11158,4.34185 -3.56558,-10.30991 -2.95216,-20.605 -4.03334,-24.7742 -4.34844,-16.76827 -5.46531,-3.56464 -7.58197,2.78536 -2.11667,6.35 -3.42482,19.66487 -10.08052,36.01176 -11.5127,28.27604 -39.68562,50.04122 -61.47997,16.76745 -6.9291,-10.57877 -9.42836,-13.59246 -12.33878,-33.70079 -2.91042,-20.10833 -6.58254,-10.05054 -7.37629,-1.58388 -0.79375,8.46667 -4.82935,36.68893 -18.10691,52.03403 -28.26255,32.66349 -51.01342,2.50722 -57.33138,-9.43973 -11.65838,-22.04543 -10.36423,-39.32628 -10.36423,-39.32628 0,0 -3.11079,-9.77617 -5.82083,12.37134 -2.674201,21.85472 -9.602298,34.27491 -18.173051,43.63713 -8.260866,9.02371 -36.458244,8.08406 -42.235149,-9.51725 -5.681013,-17.30914 -5.956743,-33.35869 -9.660909,-50.82119 -3.704167,-17.4625 -23.0187503,-58.47291 -45.772916,-78.05208 -22.754167,-19.57916 -55.297917,-40.21667 -63.235417,-45.50834 -7.9375,-5.29167 -35.546598,-17.3301 -50.799998,-66.93958 -13.1345,-42.71808 -14.38104,-46.4566 -14.38104,-46.4566 0,0 79.157664,-33.70079 159.897221,-91.212516 v 0 c 0.465656,39.429436 11.791451,73.927436 17.058907,89.893216 25.024497,75.84989 70.833472,72.67915 86.189572,50.51527 17.26465,-24.91857 22.40344,-70.64211 17.70693,-117.60729 C 134.04761,58.897913 129.18185,37.984799 119.32928,14.423199 117.29965,9.5695055 112.34315,1.2219379 112.34315,1.2219379 l 0.1881,-0.2056722 z"
         transform="translate(5.2083333e-6)" /></g></g><script
     id="mesh_polyfill"
     type="text/javascript">
!function(){const t=&quot;http://www.w3.org/2000/svg&quot;,e=&quot;http://www.w3.org/1999/xlink&quot;,s=&quot;http://www.w3.org/1999/xhtml&quot;,r=2;if(document.createElementNS(t,&quot;meshgradient&quot;).x)return;const n=(t,e,s,r)=&gt;{let n=new x(.5*(e.x+s.x),.5*(e.y+s.y)),o=new x(.5*(t.x+e.x),.5*(t.y+e.y)),i=new x(.5*(s.x+r.x),.5*(s.y+r.y)),a=new x(.5*(n.x+o.x),.5*(n.y+o.y)),h=new x(.5*(n.x+i.x),.5*(n.y+i.y)),l=new x(.5*(a.x+h.x),.5*(a.y+h.y));return[[t,o,a,l],[l,h,i,r]]},o=t=&gt;{let e=t[0].distSquared(t[1]),s=t[2].distSquared(t[3]),r=.25*t[0].distSquared(t[2]),n=.25*t[1].distSquared(t[3]),o=e&gt;s?e:s,i=r&gt;n?r:n;return 18*(o&gt;i?o:i)},i=(t,e)=&gt;Math.sqrt(t.distSquared(e)),a=(t,e)=&gt;t.scale(2/3).add(e.scale(1/3)),h=t=&gt;{let e,s,r,n,o,i,a,h=new g;return t.match(/(\w+\(\s*[^)]+\))+/g).forEach(t=&gt;{let l=t.match(/[\w.-]+/g),d=l.shift();switch(d){case&quot;translate&quot;:2===l.length?e=new g(1,0,0,1,l[0],l[1]):(console.error(&quot;mesh.js: translate does not have 2 arguments!&quot;),e=new g(1,0,0,1,0,0)),h=h.append(e);break;case&quot;scale&quot;:1===l.length?s=new g(l[0],0,0,l[0],0,0):2===l.length?s=new g(l[0],0,0,l[1],0,0):(console.error(&quot;mesh.js: scale does not have 1 or 2 arguments!&quot;),s=new g(1,0,0,1,0,0)),h=h.append(s);break;case&quot;rotate&quot;:if(3===l.length&amp;&amp;(e=new g(1,0,0,1,l[1],l[2]),h=h.append(e)),l[0]){r=l[0]*Math.PI/180;let t=Math.cos(r),e=Math.sin(r);Math.abs(t)&lt;1e-16&amp;&amp;(t=0),Math.abs(e)&lt;1e-16&amp;&amp;(e=0),a=new g(t,e,-e,t,0,0),h=h.append(a)}else console.error(&quot;math.js: No argument to rotate transform!&quot;);3===l.length&amp;&amp;(e=new g(1,0,0,1,-l[1],-l[2]),h=h.append(e));break;case&quot;skewX&quot;:l[0]?(r=l[0]*Math.PI/180,n=Math.tan(r),o=new g(1,0,n,1,0,0),h=h.append(o)):console.error(&quot;math.js: No argument to skewX transform!&quot;);break;case&quot;skewY&quot;:l[0]?(r=l[0]*Math.PI/180,n=Math.tan(r),i=new g(1,n,0,1,0,0),h=h.append(i)):console.error(&quot;math.js: No argument to skewY transform!&quot;);break;case&quot;matrix&quot;:6===l.length?h=h.append(new g(...l)):console.error(&quot;math.js: Incorrect number of arguments for matrix!&quot;);break;default:console.error(&quot;mesh.js: Unhandled transform type: &quot;+d)}}),h},l=t=&gt;{let e=[],s=t.split(/[ ,]+/);for(let t=0,r=s.length-1;t&lt;r;t+=2)e.push(new x(parseFloat(s[t]),parseFloat(s[t+1])));return e},d=(t,e)=&gt;{for(let s in e)t.setAttribute(s,e[s])},c=(t,e,s,r,n)=&gt;{let o,i,a=[0,0,0,0];for(let h=0;h&lt;3;++h)e[h]&lt;t[h]&amp;&amp;e[h]&lt;s[h]||t[h]&lt;e[h]&amp;&amp;s[h]&lt;e[h]?a[h]=0:(a[h]=.5*((e[h]-t[h])/r+(s[h]-e[h])/n),o=Math.abs(3*(e[h]-t[h])/r),i=Math.abs(3*(s[h]-e[h])/n),a[h]&gt;o?a[h]=o:a[h]&gt;i&amp;&amp;(a[h]=i));return a},u=[[1,0,0,0,0,0,0,0,0,0,0,0,0,0,0,0],[0,0,0,0,1,0,0,0,0,0,0,0,0,0,0,0],[-3,3,0,0,-2,-1,0,0,0,0,0,0,0,0,0,0],[2,-2,0,0,1,1,0,0,0,0,0,0,0,0,0,0],[0,0,0,0,0,0,0,0,1,0,0,0,0,0,0,0],[0,0,0,0,0,0,0,0,0,0,0,0,1,0,0,0],[0,0,0,0,0,0,0,0,-3,3,0,0,-2,-1,0,0],[0,0,0,0,0,0,0,0,2,-2,0,0,1,1,0,0],[-3,0,3,0,0,0,0,0,-2,0,-1,0,0,0,0,0],[0,0,0,0,-3,0,3,0,0,0,0,0,-2,0,-1,0],[9,-9,-9,9,6,3,-6,-3,6,-6,3,-3,4,2,2,1],[-6,6,6,-6,-3,-3,3,3,-4,4,-2,2,-2,-2,-1,-1],[2,0,-2,0,0,0,0,0,1,0,1,0,0,0,0,0],[0,0,0,0,2,0,-2,0,0,0,0,0,1,0,1,0],[-6,6,6,-6,-4,-2,4,2,-3,3,-3,3,-2,-1,-2,-1],[4,-4,-4,4,2,2,-2,-2,2,-2,2,-2,1,1,1,1]],f=t=&gt;{let e=[];for(let s=0;s&lt;16;++s){e[s]=0;for(let r=0;r&lt;16;++r)e[s]+=u[s][r]*t[r]}return e},p=(t,e,s)=&gt;{const r=e*e,n=s*s,o=e*e*e,i=s*s*s;return t[0]+t[1]*e+t[2]*r+t[3]*o+t[4]*s+t[5]*s*e+t[6]*s*r+t[7]*s*o+t[8]*n+t[9]*n*e+t[10]*n*r+t[11]*n*o+t[12]*i+t[13]*i*e+t[14]*i*r+t[15]*i*o},y=t=&gt;{let e=[],s=[],r=[];for(let s=0;s&lt;4;++s)e[s]=[],e[s][0]=n(t[0][s],t[1][s],t[2][s],t[3][s]),e[s][1]=[],e[s][1].push(...n(...e[s][0][0])),e[s][1].push(...n(...e[s][0][1])),e[s][2]=[],e[s][2].push(...n(...e[s][1][0])),e[s][2].push(...n(...e[s][1][1])),e[s][2].push(...n(...e[s][1][2])),e[s][2].push(...n(...e[s][1][3]));for(let t=0;t&lt;8;++t){s[t]=[];for(let r=0;r&lt;4;++r)s[t][r]=[],s[t][r][0]=n(e[0][2][t][r],e[1][2][t][r],e[2][2][t][r],e[3][2][t][r]),s[t][r][1]=[],s[t][r][1].push(...n(...s[t][r][0][0])),s[t][r][1].push(...n(...s[t][r][0][1])),s[t][r][2]=[],s[t][r][2].push(...n(...s[t][r][1][0])),s[t][r][2].push(...n(...s[t][r][1][1])),s[t][r][2].push(...n(...s[t][r][1][2])),s[t][r][2].push(...n(...s[t][r][1][3]))}for(let t=0;t&lt;8;++t){r[t]=[];for(let e=0;e&lt;8;++e)r[t][e]=[],r[t][e][0]=s[t][0][2][e],r[t][e][1]=s[t][1][2][e],r[t][e][2]=s[t][2][2][e],r[t][e][3]=s[t][3][2][e]}return r};class x{constructor(t,e){this.x=t||0,this.y=e||0}toString(){return`(x=${this.x}, y=${this.y})`}clone(){return new x(this.x,this.y)}add(t){return new x(this.x+t.x,this.y+t.y)}scale(t){return void 0===t.x?new x(this.x*t,this.y*t):new x(this.x*t.x,this.y*t.y)}distSquared(t){let e=this.x-t.x,s=this.y-t.y;return e*e+s*s}transform(t){let e=this.x*t.a+this.y*t.c+t.e,s=this.x*t.b+this.y*t.d+t.f;return new x(e,s)}}class g{constructor(t,e,s,r,n,o){void 0===t?(this.a=1,this.b=0,this.c=0,this.d=1,this.e=0,this.f=0):(this.a=t,this.b=e,this.c=s,this.d=r,this.e=n,this.f=o)}toString(){return`affine: ${this.a} ${this.c} ${this.e} \n       ${this.b} ${this.d} ${this.f}`}append(t){t instanceof g||console.error(&quot;mesh.js: argument to Affine.append is not affine!&quot;);let e=this.a*t.a+this.c*t.b,s=this.b*t.a+this.d*t.b,r=this.a*t.c+this.c*t.d,n=this.b*t.c+this.d*t.d,o=this.a*t.e+this.c*t.f+this.e,i=this.b*t.e+this.d*t.f+this.f;return new g(e,s,r,n,o,i)}}class w{constructor(t,e){this.nodes=t,this.colors=e}paintCurve(t,e){if(o(this.nodes)&gt;r){const s=n(...this.nodes);let r=[[],[]],o=[[],[]];for(let t=0;t&lt;4;++t)r[0][t]=this.colors[0][t],r[1][t]=(this.colors[0][t]+this.colors[1][t])/2,o[0][t]=r[1][t],o[1][t]=this.colors[1][t];let i=new w(s[0],r),a=new w(s[1],o);i.paintCurve(t,e),a.paintCurve(t,e)}else{let s=Math.round(this.nodes[0].x);if(s&gt;=0&amp;&amp;s&lt;e){let r=4*(~~this.nodes[0].y*e+s);t[r]=Math.round(this.colors[0][0]),t[r+1]=Math.round(this.colors[0][1]),t[r+2]=Math.round(this.colors[0][2]),t[r+3]=Math.round(this.colors[0][3])}}}}class m{constructor(t,e){this.nodes=t,this.colors=e}split(){let t=[[],[],[],[]],e=[[],[],[],[]],s=[[[],[]],[[],[]]],r=[[[],[]],[[],[]]];for(let s=0;s&lt;4;++s){const r=n(this.nodes[0][s],this.nodes[1][s],this.nodes[2][s],this.nodes[3][s]);t[0][s]=r[0][0],t[1][s]=r[0][1],t[2][s]=r[0][2],t[3][s]=r[0][3],e[0][s]=r[1][0],e[1][s]=r[1][1],e[2][s]=r[1][2],e[3][s]=r[1][3]}for(let t=0;t&lt;4;++t)s[0][0][t]=this.colors[0][0][t],s[0][1][t]=this.colors[0][1][t],s[1][0][t]=(this.colors[0][0][t]+this.colors[1][0][t])/2,s[1][1][t]=(this.colors[0][1][t]+this.colors[1][1][t])/2,r[0][0][t]=s[1][0][t],r[0][1][t]=s[1][1][t],r[1][0][t]=this.colors[1][0][t],r[1][1][t]=this.colors[1][1][t];return[new m(t,s),new m(e,r)]}paint(t,e){let s,n=!1;for(let t=0;t&lt;4;++t)if((s=o([this.nodes[0][t],this.nodes[1][t],this.nodes[2][t],this.nodes[3][t]]))&gt;r){n=!0;break}if(n){let s=this.split();s[0].paint(t,e),s[1].paint(t,e)}else{new w([...this.nodes[0]],[...this.colors[0]]).paintCurve(t,e)}}}class b{constructor(t){this.readMesh(t),this.type=t.getAttribute(&quot;type&quot;)||&quot;bilinear&quot;}readMesh(t){let e=[[]],s=[[]],r=Number(t.getAttribute(&quot;x&quot;)),n=Number(t.getAttribute(&quot;y&quot;));e[0][0]=new x(r,n);let o=t.children;for(let t=0,r=o.length;t&lt;r;++t){e[3*t+1]=[],e[3*t+2]=[],e[3*t+3]=[],s[t+1]=[];let r=o[t].children;for(let n=0,o=r.length;n&lt;o;++n){let o=r[n].children;for(let r=0,i=o.length;r&lt;i;++r){let i=r;0!==t&amp;&amp;++i;let h,d=o[r].getAttribute(&quot;path&quot;),c=&quot;l&quot;;null!=d&amp;&amp;(c=(h=d.match(/\s*([lLcC])\s*(.*)/))[1]);let u=l(h[2]);switch(c){case&quot;l&quot;:0===i?(e[3*t][3*n+3]=u[0].add(e[3*t][3*n]),e[3*t][3*n+1]=a(e[3*t][3*n],e[3*t][3*n+3]),e[3*t][3*n+2]=a(e[3*t][3*n+3],e[3*t][3*n])):1===i?(e[3*t+3][3*n+3]=u[0].add(e[3*t][3*n+3]),e[3*t+1][3*n+3]=a(e[3*t][3*n+3],e[3*t+3][3*n+3]),e[3*t+2][3*n+3]=a(e[3*t+3][3*n+3],e[3*t][3*n+3])):2===i?(0===n&amp;&amp;(e[3*t+3][3*n+0]=u[0].add(e[3*t+3][3*n+3])),e[3*t+3][3*n+1]=a(e[3*t+3][3*n],e[3*t+3][3*n+3]),e[3*t+3][3*n+2]=a(e[3*t+3][3*n+3],e[3*t+3][3*n])):(e[3*t+1][3*n]=a(e[3*t][3*n],e[3*t+3][3*n]),e[3*t+2][3*n]=a(e[3*t+3][3*n],e[3*t][3*n]));break;case&quot;L&quot;:0===i?(e[3*t][3*n+3]=u[0],e[3*t][3*n+1]=a(e[3*t][3*n],e[3*t][3*n+3]),e[3*t][3*n+2]=a(e[3*t][3*n+3],e[3*t][3*n])):1===i?(e[3*t+3][3*n+3]=u[0],e[3*t+1][3*n+3]=a(e[3*t][3*n+3],e[3*t+3][3*n+3]),e[3*t+2][3*n+3]=a(e[3*t+3][3*n+3],e[3*t][3*n+3])):2===i?(0===n&amp;&amp;(e[3*t+3][3*n+0]=u[0]),e[3*t+3][3*n+1]=a(e[3*t+3][3*n],e[3*t+3][3*n+3]),e[3*t+3][3*n+2]=a(e[3*t+3][3*n+3],e[3*t+3][3*n])):(e[3*t+1][3*n]=a(e[3*t][3*n],e[3*t+3][3*n]),e[3*t+2][3*n]=a(e[3*t+3][3*n],e[3*t][3*n]));break;case&quot;c&quot;:0===i?(e[3*t][3*n+1]=u[0].add(e[3*t][3*n]),e[3*t][3*n+2]=u[1].add(e[3*t][3*n]),e[3*t][3*n+3]=u[2].add(e[3*t][3*n])):1===i?(e[3*t+1][3*n+3]=u[0].add(e[3*t][3*n+3]),e[3*t+2][3*n+3]=u[1].add(e[3*t][3*n+3]),e[3*t+3][3*n+3]=u[2].add(e[3*t][3*n+3])):2===i?(e[3*t+3][3*n+2]=u[0].add(e[3*t+3][3*n+3]),e[3*t+3][3*n+1]=u[1].add(e[3*t+3][3*n+3]),0===n&amp;&amp;(e[3*t+3][3*n+0]=u[2].add(e[3*t+3][3*n+3]))):(e[3*t+2][3*n]=u[0].add(e[3*t+3][3*n]),e[3*t+1][3*n]=u[1].add(e[3*t+3][3*n]));break;case&quot;C&quot;:0===i?(e[3*t][3*n+1]=u[0],e[3*t][3*n+2]=u[1],e[3*t][3*n+3]=u[2]):1===i?(e[3*t+1][3*n+3]=u[0],e[3*t+2][3*n+3]=u[1],e[3*t+3][3*n+3]=u[2]):2===i?(e[3*t+3][3*n+2]=u[0],e[3*t+3][3*n+1]=u[1],0===n&amp;&amp;(e[3*t+3][3*n+0]=u[2])):(e[3*t+2][3*n]=u[0],e[3*t+1][3*n]=u[1]);break;default:console.error(&quot;mesh.js: &quot;+c+&quot; invalid path type.&quot;)}if(0===t&amp;&amp;0===n||r&gt;0){let e=window.getComputedStyle(o[r]).stopColor.match(/^rgb\s*\(\s*(\d+)\s*,\s*(\d+)\s*,\s*(\d+)\s*\)$/i),a=window.getComputedStyle(o[r]).stopOpacity,h=255;a&amp;&amp;(h=Math.floor(255*a)),e&amp;&amp;(0===i?(s[t][n]=[],s[t][n][0]=Math.floor(e[1]),s[t][n][1]=Math.floor(e[2]),s[t][n][2]=Math.floor(e[3]),s[t][n][3]=h):1===i?(s[t][n+1]=[],s[t][n+1][0]=Math.floor(e[1]),s[t][n+1][1]=Math.floor(e[2]),s[t][n+1][2]=Math.floor(e[3]),s[t][n+1][3]=h):2===i?(s[t+1][n+1]=[],s[t+1][n+1][0]=Math.floor(e[1]),s[t+1][n+1][1]=Math.floor(e[2]),s[t+1][n+1][2]=Math.floor(e[3]),s[t+1][n+1][3]=h):3===i&amp;&amp;(s[t+1][n]=[],s[t+1][n][0]=Math.floor(e[1]),s[t+1][n][1]=Math.floor(e[2]),s[t+1][n][2]=Math.floor(e[3]),s[t+1][n][3]=h))}}e[3*t+1][3*n+1]=new x,e[3*t+1][3*n+2]=new x,e[3*t+2][3*n+1]=new x,e[3*t+2][3*n+2]=new x,e[3*t+1][3*n+1].x=(-4*e[3*t][3*n].x+6*(e[3*t][3*n+1].x+e[3*t+1][3*n].x)+-2*(e[3*t][3*n+3].x+e[3*t+3][3*n].x)+3*(e[3*t+3][3*n+1].x+e[3*t+1][3*n+3].x)+-1*e[3*t+3][3*n+3].x)/9,e[3*t+1][3*n+2].x=(-4*e[3*t][3*n+3].x+6*(e[3*t][3*n+2].x+e[3*t+1][3*n+3].x)+-2*(e[3*t][3*n].x+e[3*t+3][3*n+3].x)+3*(e[3*t+3][3*n+2].x+e[3*t+1][3*n].x)+-1*e[3*t+3][3*n].x)/9,e[3*t+2][3*n+1].x=(-4*e[3*t+3][3*n].x+6*(e[3*t+3][3*n+1].x+e[3*t+2][3*n].x)+-2*(e[3*t+3][3*n+3].x+e[3*t][3*n].x)+3*(e[3*t][3*n+1].x+e[3*t+2][3*n+3].x)+-1*e[3*t][3*n+3].x)/9,e[3*t+2][3*n+2].x=(-4*e[3*t+3][3*n+3].x+6*(e[3*t+3][3*n+2].x+e[3*t+2][3*n+3].x)+-2*(e[3*t+3][3*n].x+e[3*t][3*n+3].x)+3*(e[3*t][3*n+2].x+e[3*t+2][3*n].x)+-1*e[3*t][3*n].x)/9,e[3*t+1][3*n+1].y=(-4*e[3*t][3*n].y+6*(e[3*t][3*n+1].y+e[3*t+1][3*n].y)+-2*(e[3*t][3*n+3].y+e[3*t+3][3*n].y)+3*(e[3*t+3][3*n+1].y+e[3*t+1][3*n+3].y)+-1*e[3*t+3][3*n+3].y)/9,e[3*t+1][3*n+2].y=(-4*e[3*t][3*n+3].y+6*(e[3*t][3*n+2].y+e[3*t+1][3*n+3].y)+-2*(e[3*t][3*n].y+e[3*t+3][3*n+3].y)+3*(e[3*t+3][3*n+2].y+e[3*t+1][3*n].y)+-1*e[3*t+3][3*n].y)/9,e[3*t+2][3*n+1].y=(-4*e[3*t+3][3*n].y+6*(e[3*t+3][3*n+1].y+e[3*t+2][3*n].y)+-2*(e[3*t+3][3*n+3].y+e[3*t][3*n].y)+3*(e[3*t][3*n+1].y+e[3*t+2][3*n+3].y)+-1*e[3*t][3*n+3].y)/9,e[3*t+2][3*n+2].y=(-4*e[3*t+3][3*n+3].y+6*(e[3*t+3][3*n+2].y+e[3*t+2][3*n+3].y)+-2*(e[3*t+3][3*n].y+e[3*t][3*n+3].y)+3*(e[3*t][3*n+2].y+e[3*t+2][3*n].y)+-1*e[3*t][3*n].y)/9}}this.nodes=e,this.colors=s}paintMesh(t,e){let s=(this.nodes.length-1)/3,r=(this.nodes[0].length-1)/3;if(&quot;bilinear&quot;===this.type||s&lt;2||r&lt;2){let n;for(let o=0;o&lt;s;++o)for(let s=0;s&lt;r;++s){let r=[];for(let t=3*o,e=3*o+4;t&lt;e;++t)r.push(this.nodes[t].slice(3*s,3*s+4));let i=[];i.push(this.colors[o].slice(s,s+2)),i.push(this.colors[o+1].slice(s,s+2)),(n=new m(r,i)).paint(t,e)}}else{let n,o,a,h,l,d,u;const x=s,g=r;s++,r++;let w=new Array(s);for(let t=0;t&lt;s;++t){w[t]=new Array(r);for(let e=0;e&lt;r;++e)w[t][e]=[],w[t][e][0]=this.nodes[3*t][3*e],w[t][e][1]=this.colors[t][e]}for(let t=0;t&lt;s;++t)for(let e=0;e&lt;r;++e)0!==t&amp;&amp;t!==x&amp;&amp;(n=i(w[t-1][e][0],w[t][e][0]),o=i(w[t+1][e][0],w[t][e][0]),w[t][e][2]=c(w[t-1][e][1],w[t][e][1],w[t+1][e][1],n,o)),0!==e&amp;&amp;e!==g&amp;&amp;(n=i(w[t][e-1][0],w[t][e][0]),o=i(w[t][e+1][0],w[t][e][0]),w[t][e][3]=c(w[t][e-1][1],w[t][e][1],w[t][e+1][1],n,o));for(let t=0;t&lt;r;++t){w[0][t][2]=[],w[x][t][2]=[];for(let e=0;e&lt;4;++e)n=i(w[1][t][0],w[0][t][0]),o=i(w[x][t][0],w[x-1][t][0]),w[0][t][2][e]=n&gt;0?2*(w[1][t][1][e]-w[0][t][1][e])/n-w[1][t][2][e]:0,w[x][t][2][e]=o&gt;0?2*(w[x][t][1][e]-w[x-1][t][1][e])/o-w[x-1][t][2][e]:0}for(let t=0;t&lt;s;++t){w[t][0][3]=[],w[t][g][3]=[];for(let e=0;e&lt;4;++e)n=i(w[t][1][0],w[t][0][0]),o=i(w[t][g][0],w[t][g-1][0]),w[t][0][3][e]=n&gt;0?2*(w[t][1][1][e]-w[t][0][1][e])/n-w[t][1][3][e]:0,w[t][g][3][e]=o&gt;0?2*(w[t][g][1][e]-w[t][g-1][1][e])/o-w[t][g-1][3][e]:0}for(let s=0;s&lt;x;++s)for(let r=0;r&lt;g;++r){let n=i(w[s][r][0],w[s+1][r][0]),o=i(w[s][r+1][0],w[s+1][r+1][0]),c=i(w[s][r][0],w[s][r+1][0]),x=i(w[s+1][r][0],w[s+1][r+1][0]),g=[[],[],[],[]];for(let t=0;t&lt;4;++t){(d=[])[0]=w[s][r][1][t],d[1]=w[s+1][r][1][t],d[2]=w[s][r+1][1][t],d[3]=w[s+1][r+1][1][t],d[4]=w[s][r][2][t]*n,d[5]=w[s+1][r][2][t]*n,d[6]=w[s][r+1][2][t]*o,d[7]=w[s+1][r+1][2][t]*o,d[8]=w[s][r][3][t]*c,d[9]=w[s+1][r][3][t]*x,d[10]=w[s][r+1][3][t]*c,d[11]=w[s+1][r+1][3][t]*x,d[12]=0,d[13]=0,d[14]=0,d[15]=0,u=f(d);for(let e=0;e&lt;9;++e){g[t][e]=[];for(let s=0;s&lt;9;++s)g[t][e][s]=p(u,e/8,s/8),g[t][e][s]&gt;255?g[t][e][s]=255:g[t][e][s]&lt;0&amp;&amp;(g[t][e][s]=0)}}h=[];for(let t=3*s,e=3*s+4;t&lt;e;++t)h.push(this.nodes[t].slice(3*r,3*r+4));l=y(h);for(let s=0;s&lt;8;++s)for(let r=0;r&lt;8;++r)(a=new m(l[s][r],[[[g[0][s][r],g[1][s][r],g[2][s][r],g[3][s][r]],[g[0][s][r+1],g[1][s][r+1],g[2][s][r+1],g[3][s][r+1]]],[[g[0][s+1][r],g[1][s+1][r],g[2][s+1][r],g[3][s+1][r]],[g[0][s+1][r+1],g[1][s+1][r+1],g[2][s+1][r+1],g[3][s+1][r+1]]]])).paint(t,e)}}}transform(t){if(t instanceof x)for(let e=0,s=this.nodes.length;e&lt;s;++e)for(let s=0,r=this.nodes[0].length;s&lt;r;++s)this.nodes[e][s]=this.nodes[e][s].add(t);else if(t instanceof g)for(let e=0,s=this.nodes.length;e&lt;s;++e)for(let s=0,r=this.nodes[0].length;s&lt;r;++s)this.nodes[e][s]=this.nodes[e][s].transform(t)}scale(t){for(let e=0,s=this.nodes.length;e&lt;s;++e)for(let s=0,r=this.nodes[0].length;s&lt;r;++s)this.nodes[e][s]=this.nodes[e][s].scale(t)}}document.querySelectorAll(&quot;rect,circle,ellipse,path,text&quot;).forEach((r,n)=&gt;{let o=r.getAttribute(&quot;id&quot;);o||(o=&quot;patchjs_shape&quot;+n,r.setAttribute(&quot;id&quot;,o));const i=r.style.fill.match(/^url\(\s*&quot;?\s*#([^\s&quot;]+)&quot;?\s*\)/),a=r.style.stroke.match(/^url\(\s*&quot;?\s*#([^\s&quot;]+)&quot;?\s*\)/);if(i&amp;&amp;i[1]){const a=document.getElementById(i[1]);if(a&amp;&amp;&quot;meshgradient&quot;===a.nodeName){const i=r.getBBox();let l=document.createElementNS(s,&quot;canvas&quot;);d(l,{width:i.width,height:i.height});const c=l.getContext(&quot;2d&quot;);let u=c.createImageData(i.width,i.height);const f=new b(a);&quot;objectBoundingBox&quot;===a.getAttribute(&quot;gradientUnits&quot;)&amp;&amp;f.scale(new x(i.width,i.height));const p=a.getAttribute(&quot;gradientTransform&quot;);null!=p&amp;&amp;f.transform(h(p)),&quot;userSpaceOnUse&quot;===a.getAttribute(&quot;gradientUnits&quot;)&amp;&amp;f.transform(new x(-i.x,-i.y)),f.paintMesh(u.data,l.width),c.putImageData(u,0,0);const y=document.createElementNS(t,&quot;image&quot;);d(y,{width:i.width,height:i.height,x:i.x,y:i.y});let g=l.toDataURL();y.setAttributeNS(e,&quot;xlink:href&quot;,g),r.parentNode.insertBefore(y,r),r.style.fill=&quot;none&quot;;const w=document.createElementNS(t,&quot;use&quot;);w.setAttributeNS(e,&quot;xlink:href&quot;,&quot;#&quot;+o);const m=&quot;patchjs_clip&quot;+n,M=document.createElementNS(t,&quot;clipPath&quot;);M.setAttribute(&quot;id&quot;,m),M.appendChild(w),r.parentElement.insertBefore(M,r),y.setAttribute(&quot;clip-path&quot;,&quot;url(#&quot;+m+&quot;)&quot;),u=null,l=null,g=null}}if(a&amp;&amp;a[1]){const o=document.getElementById(a[1]);if(o&amp;&amp;&quot;meshgradient&quot;===o.nodeName){const i=parseFloat(r.style.strokeWidth.slice(0,-2))*(parseFloat(r.style.strokeMiterlimit)||parseFloat(r.getAttribute(&quot;stroke-miterlimit&quot;))||1),a=r.getBBox(),l=Math.trunc(a.width+i),c=Math.trunc(a.height+i),u=Math.trunc(a.x-i/2),f=Math.trunc(a.y-i/2);let p=document.createElementNS(s,&quot;canvas&quot;);d(p,{width:l,height:c});const y=p.getContext(&quot;2d&quot;);let g=y.createImageData(l,c);const w=new b(o);&quot;objectBoundingBox&quot;===o.getAttribute(&quot;gradientUnits&quot;)&amp;&amp;w.scale(new x(l,c));const m=o.getAttribute(&quot;gradientTransform&quot;);null!=m&amp;&amp;w.transform(h(m)),&quot;userSpaceOnUse&quot;===o.getAttribute(&quot;gradientUnits&quot;)&amp;&amp;w.transform(new x(-u,-f)),w.paintMesh(g.data,p.width),y.putImageData(g,0,0);const M=document.createElementNS(t,&quot;image&quot;);d(M,{width:l,height:c,x:0,y:0});let S=p.toDataURL();M.setAttributeNS(e,&quot;xlink:href&quot;,S);const k=&quot;pattern_clip&quot;+n,A=document.createElementNS(t,&quot;pattern&quot;);d(A,{id:k,patternUnits:&quot;userSpaceOnUse&quot;,width:l,height:c,x:u,y:f}),A.appendChild(M),o.parentNode.appendChild(A),r.style.stroke=&quot;url(#&quot;+k+&quot;)&quot;,g=null,p=null,S=null}}})}();
</script></svg>
